<svg width="150" height="150" viewBox="0 0 150 150" fill="none" xmlns="http://www.w3.org/2000/svg">
<path d="M25.125 37.3125C17.1875 47.8125 12.5 60.875 12.5 75C12.5 109.5 40.5 137.5 75 137.5C109.5 137.5 137.5 109.5 137.5 75C137.5 40.5 109.5 12.5 75 12.5" stroke="#EC824E" stroke-width="4" stroke-linecap="round" stroke-linejoin="round"/>
<path d="M31.25 75C31.25 99.1875 50.8125 118.75 75 118.75C99.1875 118.75 118.75 99.1875 118.75 75C118.75 50.8125 99.1875 31.25 75 31.25" stroke="#EC824E" stroke-width="4" stroke-linecap="round" stroke-linejoin="round"/>
<path d="M75 100C88.8125 100 100 88.8125 100 75C100 61.1875 88.8125 50 75 50" stroke="#EC824E" stroke-width="4" stroke-linecap="round" stroke-linejoin="round"/>
</svg>
