<svg width="154" height="100" viewBox="0 0 154 100" fill="none" xmlns="http://www.w3.org/2000/svg">
<rect x="0.5" y="0.5" width="153" height="99" rx="4.5" fill="#FAFAFA" stroke="#2B3942"/>
<path d="M98.9778 50.5119C98.9778 48.9785 98.7222 47.1896 98.4667 45.9119H77V54.8563H89.2667C88.7556 57.6674 87.2222 59.9674 84.6667 61.7563V67.6341H92.3333C96.6778 63.5452 98.9778 57.4119 98.9778 50.5119Z" fill="#4285F4"/>
<path d="M76.9996 72.9994C83.133 72.9994 88.4996 70.9549 92.333 67.3771L84.6663 61.7549C82.6218 63.0327 80.0663 64.0549 76.9996 64.0549C71.1218 64.0549 66.0107 59.966 64.2218 54.5994H56.5552V60.2216C60.133 67.8883 68.0552 72.9994 76.9996 72.9994Z" fill="#34A853"/>
<path d="M64.2222 54.3443C63.7111 53.0665 63.4556 51.5331 63.4556 49.9998C63.4556 48.4665 63.7111 46.9331 64.2222 45.6554V39.7776H56.5556C55.0222 42.8443 54 46.422 54 49.9998C54 53.5776 54.7667 57.1554 56.5556 60.222L64.2222 54.3443Z" fill="#FBBC05"/>
<path d="M76.9996 36.2C80.3218 36.2 83.3885 37.4778 85.6885 39.5222L92.333 32.8778C88.4996 29.3 83.133 27 76.9996 27C68.0552 27 60.133 32.1111 56.5552 39.7778L64.2218 45.6556C66.0107 40.2889 71.1218 36.2 76.9996 36.2Z" fill="#EA4335"/>
</svg>
