<svg width="25" height="25" viewBox="0 0 25 25" fill="none" xmlns="http://www.w3.org/2000/svg">
<path d="M17.0874 2.48926H7.0874C4.32598 2.48926 2.0874 4.72783 2.0874 7.48926V17.4893C2.0874 20.2507 4.32598 22.4893 7.0874 22.4893H17.0874C19.8488 22.4893 22.0874 20.2507 22.0874 17.4893V7.48926C22.0874 4.72783 19.8488 2.48926 17.0874 2.48926Z" stroke="white" stroke-width="2" stroke-linecap="round" stroke-linejoin="round"/>
<path d="M16.0874 11.8593C16.2108 12.6916 16.0687 13.5415 15.6812 14.2883C15.2937 15.0351 14.6806 15.6407 13.929 16.019C13.1775 16.3972 12.3259 16.5289 11.4952 16.3952C10.6645 16.2616 9.89718 15.8694 9.30225 15.2745C8.70733 14.6796 8.31515 13.9122 8.18148 13.0815C8.04782 12.2509 8.17948 11.3992 8.55774 10.6477C8.936 9.89617 9.5416 9.28306 10.2884 8.89556C11.0352 8.50806 11.8852 8.3659 12.7174 8.48932C13.5663 8.6152 14.3523 9.01078 14.9591 9.61762C15.566 10.2245 15.9615 11.0104 16.0874 11.8593Z" stroke="white" stroke-width="2" stroke-linecap="round" stroke-linejoin="round"/>
<path d="M17.5874 6.98926H17.5974" stroke="white" stroke-width="2" stroke-linecap="round" stroke-linejoin="round"/>
</svg>
