<svg width="150" height="150" viewBox="0 0 150 150" fill="none" xmlns="http://www.w3.org/2000/svg">
<path d="M62.5 105.938H38.8125C17.75 105.938 12.5 100.688 12.5 79.6251V42.1252C12.5 21.0627 17.75 15.8127 38.8125 15.8127H104.625C125.688 15.8127 130.938 21.0627 130.938 42.1252" stroke="#EC824E" stroke-width="4" stroke-linecap="round" stroke-linejoin="round"/>
<path d="M62.5 134.187V105.937" stroke="#EC824E" stroke-width="4" stroke-linecap="round" stroke-linejoin="round"/>
<path d="M12.5 80.9373H62.5" stroke="#EC824E" stroke-width="4" stroke-linecap="round" stroke-linejoin="round"/>
<path d="M42.1263 134.187H62.5013" stroke="#EC824E" stroke-width="4" stroke-linecap="round" stroke-linejoin="round"/>
<path d="M137.499 80.0005V115.688C137.499 130.5 133.811 134.188 118.999 134.188H96.8113C81.9988 134.188 78.3113 130.5 78.3113 115.688V80.0005C78.3113 65.188 81.9988 61.5005 96.8113 61.5005H118.999C133.811 61.5005 137.499 65.188 137.499 80.0005Z" stroke="#EC824E" stroke-width="4" stroke-linecap="round" stroke-linejoin="round"/>
<path d="M107.778 114.062H107.834" stroke="#EC824E" stroke-width="4" stroke-linecap="round" stroke-linejoin="round"/>
</svg>
