<svg width="165" height="80" viewBox="0 0 165 80" fill="none" xmlns="http://www.w3.org/2000/svg">
<path d="M63.6942 26.8V52H60.7422L45.6222 33.208V52H42.0222V26.8H44.9742L60.0942 45.592V26.8H63.6942ZM89.525 48.868V52H71.237V26.8H89.021V29.932H74.837V37.672H87.473V40.732H74.837V48.868H89.525ZM130.607 26.8L122.183 52H118.403L111.527 31.876L104.651 52H100.799L92.3747 26.8H96.0827L102.887 47.284L109.979 26.8H113.291L120.239 47.392L127.187 26.8H130.607Z" fill="#F0BB6D"/>
<path d="M8.14121 54.86C11.0303 56.857 11.4969 59.0361 11.5667 59.6483C12.0253 59.9157 12.452 60.1535 12.8428 60.3635C12.2306 59.3511 11.6464 58.319 11.1181 57.2631C10.2338 55.4648 9.46661 53.612 8.82112 51.716C8.74934 51.5179 8.68155 51.302 8.62173 51.092C8.1306 49.5318 7.39005 48.0602 6.42846 46.7336L6.22908 46.4682C-1.86607 42.0642 1.84255 33.084 1.84255 33.084C1.71893 35.0651 3.63704 36.5806 5.63091 40.1961C7.31375 43.2727 6.74948 45.4281 6.54411 46.0046C6.95884 46.6385 7.34166 47.1932 7.68062 47.6548C7.54769 47.0777 7.42474 46.4979 7.31175 45.9155C6.93675 43.9575 6.70419 41.9753 6.61589 39.9841L6.58199 39.2551C6.56804 39.0074 6.56006 38.7578 6.56405 38.5102V37.0184C6.57601 36.5212 6.60791 36.0279 6.62785 35.5286C6.64181 35.279 6.6458 35.0314 6.66972 34.7838L6.73752 34.0428C6.78291 33.5509 6.75604 33.0551 6.65776 32.5709L6.08352 29.732C0.181647 22.6813 6.95485 15.6842 6.95485 15.6842C6.10944 17.485 7.34166 19.5948 7.84611 23.6798C8.2748 27.1546 6.95285 28.9554 6.5481 29.4249C6.71558 30.2491 6.88905 30.9682 7.04059 31.5546L7.10638 31.091C7.16421 30.5997 7.28184 30.1143 7.36958 29.627L7.51114 28.896C7.557 28.6523 7.60485 28.4086 7.66866 28.1689C7.90992 27.2061 8.13124 26.2394 8.44029 25.2964L8.65563 24.5852L8.76329 24.2305L8.88891 23.8799L9.39336 22.4812C9.71238 21.669 10.0454 20.8607 10.3903 20.0643C11.0415 18.6361 11.4266 17.1023 11.5268 15.5376C11.5467 15.173 11.5747 14.8164 11.6106 14.4678C8.43231 5.85998 17.1775 1.53131 17.1775 1.53131C15.7817 2.94383 16.2204 5.34291 15.3152 9.35857C14.5435 12.7759 12.6912 14.03 12.1649 14.3291C11.9954 15.496 11.9037 16.4766 11.8558 17.162L11.8957 17.0868L12.2406 16.4429C12.3583 16.225 12.4938 16.019 12.6195 15.805L13.3911 14.5391L14.2245 13.3088C14.3641 13.1107 14.4997 12.8988 14.6432 12.6967L15.0899 12.1024C15.5485 11.4697 16.0296 10.8549 16.5334 10.258C17.2333 9.37838 18.1903 8.10652 19.0218 7.18928C19.4173 6.76295 19.7484 6.28181 20.0048 5.76092C23.6416 -1.86624 32.5283 0.27729 32.5283 0.27729C30.5344 0.40408 29.2604 2.49016 25.8967 4.89123C23.2369 6.7891 21.1373 6.67618 20.3617 6.53751L20.0666 6.63458L19.0497 7.6905C17.7063 9.13365 16.4658 10.6681 15.3371 12.2826L14.9084 12.877C14.7708 13.0751 14.6432 13.289 14.5097 13.4951L13.7121 14.7332L13.3771 15.3276C14.2172 14.6175 15.1038 13.9637 16.031 13.3703C20.8163 5.5331 29.6851 9.62205 29.6851 9.62205C27.6912 9.41205 26.0961 11.2564 22.3655 13.0592C19.1973 14.5926 17.0538 13.9349 16.4856 13.7051C15.2155 14.4301 14.1587 15.1532 13.5606 15.5891C13.1687 15.8599 12.8486 16.2208 12.6274 16.641L12.2945 17.2968C11.3949 19.0357 10.6187 20.8349 9.97159 22.6813L9.511 24.0681L9.39735 24.4168L9.29965 24.7694L9.10026 25.4747C8.82112 26.4097 8.62971 27.3666 8.41636 28.3175C8.35854 28.5552 8.31866 28.795 8.27878 29.0366V29.0485C8.84779 28.1772 9.4704 27.3415 10.1431 26.5464C12.4161 17.6593 22.0944 18.9926 22.0944 18.9926C20.1304 19.3709 19.1374 21.5997 16.1127 24.4069C13.5346 26.7842 11.2915 26.7842 10.6814 26.7346C9.98554 27.4855 9.41729 28.157 8.99658 28.6761C8.40574 29.3913 8.04025 30.2636 7.94581 31.1841V31.198L7.77832 32.6561L7.73645 33.0186L7.71252 33.3831L7.66467 34.1102L7.61682 34.8392C7.60086 35.0809 7.60286 35.3246 7.59488 35.5683C7.59488 36.0536 7.56896 36.539 7.57096 37.0263L7.60685 38.4824C7.60685 38.7261 7.6228 38.9678 7.64274 39.2095L7.69258 39.9365C7.77234 40.9865 7.89197 42.0325 8.03952 43.0746C8.23746 42.2325 8.47972 41.4013 8.76529 40.5844C7.69657 31.4714 17.2153 29.2922 17.2153 29.2922C15.5166 30.3422 15.3909 32.7769 13.5685 36.4736C12.0053 39.6216 9.90977 40.414 9.31759 40.5745C9.09029 41.143 8.89688 41.666 8.73139 42.1296C8.3248 43.2676 8.24676 44.496 8.50609 45.6757V45.6936C8.91147 47.5889 9.4498 49.4536 10.1171 51.2743C10.788 53.0893 11.5759 54.8594 12.4759 56.5737C12.7431 57.0709 13.0222 57.5642 13.3073 58.0456C13.1494 57.0618 13.0509 56.0695 13.0122 55.074C8.65762 46.9872 16.7089 41.4877 16.7089 41.4877C15.5126 43.0825 16.2962 45.3944 15.9632 49.4972C15.6801 52.9879 14.0211 54.4856 13.5326 54.8462C13.5326 54.9789 13.5326 55.1116 13.5326 55.2424C13.5408 57.4649 14.2369 59.6311 15.5265 61.4471L15.5465 61.4749C16.6756 63.042 17.9128 64.5294 19.2491 65.9263C19.5881 66.2691 19.9091 66.6316 20.264 66.9585L21.3108 67.9589L21.3367 67.951C21.0177 67.3871 20.7292 66.8291 20.4713 66.277C13.2934 60.5002 18.5811 52.3302 18.5811 52.3302C18.1026 54.2578 19.7236 56.0942 21.0177 59.9989C22.1183 63.3272 21.1732 65.3479 20.8661 65.8768C21.0775 66.38 21.2829 66.8416 21.4643 67.2517C21.9245 68.2587 22.6204 69.1417 23.4941 69.8271L23.506 69.837C25.0106 71.043 26.599 72.1419 28.2594 73.1256C29.2271 73.6948 30.2148 74.2277 31.2223 74.7243C30.8036 74.2944 30.4128 73.8625 30.0559 73.4287C23.189 70.2827 25.7172 62.7309 25.7172 62.7309C25.7292 64.3593 27.3901 65.4885 29.2125 68.3314C30.7617 70.7523 30.4228 72.5471 30.2872 73.0285C30.5105 73.3237 30.7239 73.5951 30.9233 73.8427C31.5771 74.6623 32.4262 75.307 33.3937 75.7188H33.4076C35.1906 76.4659 37.0193 77.1005 38.8828 77.6187H38.9047C39.1519 77.6846 39.3713 77.8276 39.5306 78.0266C39.6899 78.2255 39.7809 78.47 39.79 78.7241C39.7987 78.9183 39.7604 79.1118 39.6784 79.2882C39.5963 79.4647 39.4729 79.6191 39.3184 79.7384C39.164 79.8577 38.983 79.9385 38.7906 79.974C38.5983 80.0095 38.4002 79.9987 38.2129 79.9425C36.2663 79.3556 34.359 78.6469 32.5024 77.8208C30.6562 76.9809 28.8689 76.0186 27.1528 74.9403C26.118 74.3004 25.1191 73.605 24.1481 72.872C22.829 71.8779 21.252 71.278 19.602 71.1425C10.9845 74.4291 6.49426 65.8075 6.49426 65.8075C7.93783 67.1824 10.3444 66.701 14.4 67.5389C17.8514 68.2521 19.1414 70.0747 19.4505 70.6037C20.2799 70.7087 21.0137 70.778 21.6158 70.8216C21.0695 70.3422 20.5371 69.8449 20.0048 69.3516L18.944 68.2799C18.5831 67.9292 18.2581 67.5429 17.9132 67.1744C16.5602 65.6855 15.3124 64.1055 14.1787 62.4456L14.1109 62.3426C13.5573 61.5266 12.8021 60.8656 11.9176 60.4229L11.4909 60.203C2.27522 59.8603 1.55742 50.1787 1.55742 50.1787C2.34102 52.0073 4.74364 52.4986 8.14121 54.86Z" fill="white"/>
<path d="M157.638 54.8603C154.747 56.8572 154.28 59.0364 154.207 59.6485C153.748 59.916 153.321 60.1537 152.933 60.3637C153.545 59.3514 154.129 58.3192 154.655 57.2633C155.54 55.4654 156.308 53.6125 156.952 51.7163C157.024 51.5103 157.094 51.3022 157.162 51.0923C157.653 49.532 158.393 48.0604 159.355 46.7339C159.421 46.6447 159.484 46.5576 159.554 46.4684C167.649 42.0645 163.941 33.0842 163.941 33.0842C164.062 35.0653 162.136 36.5808 160.152 40.1963C158.468 43.2729 159.032 45.4283 159.237 46.0048C158.822 46.6388 158.44 47.1935 158.101 47.6551C158.234 47.0786 158.356 46.4981 158.47 45.9157C158.845 43.9577 159.077 41.9755 159.165 39.9843L159.199 39.2394C159.211 38.9918 159.219 38.7422 159.215 38.4946V37.0028C159.203 36.5056 159.171 36.0123 159.151 35.513C159.137 35.2634 159.133 35.0158 159.112 34.7682L159.042 34.0272C158.997 33.5352 159.025 33.0394 159.124 32.5553L159.702 29.7164C165.604 22.6657 158.83 15.6685 158.83 15.6685C159.678 17.4694 158.446 19.5792 157.941 23.6642C157.51 27.139 158.832 28.9398 159.237 29.4093C159.07 30.2335 158.898 30.9526 158.745 31.539L158.679 31.0754C158.621 30.5841 158.505 30.0987 158.416 29.6114L158.274 28.8804C158.228 28.6367 158.18 28.393 158.117 28.1533C157.875 27.1905 157.656 26.2237 157.347 25.2808L157.13 24.5695L157.022 24.2149L156.896 23.8643L156.394 22.4656C156.075 21.6534 155.742 20.8451 155.385 20.0487C154.739 18.6216 154.358 17.0899 154.26 15.5279C154.24 15.1634 154.211 14.8068 154.175 14.4581C157.351 5.84635 148.606 1.51769 148.606 1.51769C150.011 2.9302 149.565 5.32929 150.47 9.34494C151.24 12.7623 153.094 14.0163 153.628 14.3155C153.798 15.4823 153.89 16.463 153.937 17.1484C153.925 17.1227 153.912 17.0989 153.898 17.0731L153.539 16.4432C153.421 16.2252 153.283 16.0192 153.158 15.8052L152.386 14.5393L151.555 13.3091C151.415 13.111 151.28 12.899 151.136 12.6969L150.689 12.1026C150.231 11.4706 149.746 10.8565 149.244 10.2582C148.544 9.37862 147.587 8.10677 146.755 7.18953C146.361 6.76269 146.03 6.28165 145.773 5.76117C142.144 -1.86599 133.251 0.277535 133.251 0.277535C135.245 0.404324 136.517 2.4904 139.881 4.89147C142.54 6.78935 144.648 6.67444 145.416 6.54369L145.713 6.64077L146.73 7.69668C148.072 9.13843 149.313 10.6708 150.442 12.2829L150.869 12.8772C151.006 13.0753 151.136 13.2893 151.268 13.4953L152.065 14.7335L152.4 15.3278C151.559 14.6182 150.672 13.9643 149.744 13.3705C144.959 5.53334 136.092 9.62229 136.092 9.62229C138.086 9.4123 139.681 11.2567 143.41 13.0595C146.58 14.5928 148.723 13.9351 149.292 13.7053C150.56 14.4442 151.617 15.1673 152.225 15.6032C152.613 15.8752 152.93 16.2352 153.15 16.6531L153.485 17.3089C154.383 19.0469 155.16 20.8447 155.808 22.6895L156.268 24.0763L156.384 24.4249L156.482 24.7776L156.681 25.4828C156.962 26.4179 157.154 27.3748 157.365 28.3257C157.423 28.5634 157.463 28.8031 157.502 29.0448V29.0567C156.932 28.1825 156.309 27.3442 155.634 26.5467C153.361 17.6595 143.685 18.9928 143.685 18.9928C145.647 19.3712 146.642 21.5999 149.667 24.4071C152.245 26.7844 154.488 26.7844 155.1 26.7349C155.794 27.4857 156.362 28.1573 156.783 28.6763C157.373 29.3919 157.739 30.264 157.835 31.1844V31.1982L158.003 32.6504L158.045 33.0129L158.069 33.3774L158.117 34.1045L158.166 34.8335C158.182 35.0752 158.178 35.3189 158.186 35.5626C158.186 36.0479 158.212 36.5333 158.21 37.0206L158.174 38.4767C158.174 38.7204 158.158 38.9621 158.141 39.2038L158.089 39.9308C158.012 40.9808 157.897 42.0268 157.744 43.0689C157.544 42.227 157.301 41.3958 157.016 40.5787C158.087 31.4657 148.566 29.2865 148.566 29.2865C150.265 30.3365 150.392 32.7712 152.213 36.4679C153.764 39.6119 155.862 40.4023 156.452 40.5688C156.679 41.1373 156.874 41.6603 157.038 42.1239C157.444 43.2619 157.523 44.49 157.265 45.67V45.6879C156.859 47.5829 156.321 49.4476 155.654 51.2686C154.988 53.0852 154.205 54.8574 153.309 56.5739C153.042 57.0712 152.763 57.5644 152.476 58.0458C152.635 57.0622 152.733 56.0698 152.771 55.0742C157.126 46.9875 149.074 41.488 149.074 41.488C150.271 43.0827 149.489 45.3947 149.82 49.4975C150.103 52.9881 151.764 54.4858 152.253 54.8464C152.253 54.9791 152.253 55.1119 152.253 55.2426C152.246 57.4654 151.55 59.6322 150.259 61.4474L150.241 61.4751C149.11 63.0486 147.87 64.5419 146.53 65.9444C146.191 66.2871 145.872 66.6497 145.517 66.9766L144.469 67.977L144.441 67.9532C144.76 67.3893 145.049 66.8313 145.308 66.2792C152.486 60.5024 147.2 52.3324 147.2 52.3324C147.679 54.26 146.058 56.0965 144.764 60.0012C143.663 63.3294 144.608 65.3501 144.913 65.879C144.702 66.3822 144.498 66.8438 144.315 67.2539C143.855 68.2609 143.159 69.144 142.285 69.8293L142.271 69.8392C140.767 71.0452 139.18 72.1441 137.52 73.1278C136.551 73.697 135.563 74.23 134.555 74.7265C134.976 74.2973 135.365 73.8654 135.721 73.4309C142.588 70.285 140.06 62.7331 140.06 62.7331C140.034 64.3853 138.375 65.5066 136.561 68.3475C135.01 70.7683 135.349 72.5632 135.484 73.0446C135.261 73.3398 135.047 73.6112 134.848 73.8588C134.193 74.6794 133.343 75.3248 132.374 75.7369H132.36C130.583 76.4747 128.762 77.1013 126.906 77.613H126.886C126.639 77.6789 126.42 77.8219 126.261 78.0208C126.101 78.2198 126.01 78.4643 126.001 78.7184C125.993 78.9126 126.031 79.1061 126.113 79.2825C126.195 79.459 126.318 79.6134 126.473 79.7327C126.627 79.852 126.808 79.9328 127.001 79.9683C127.193 80.0038 127.391 79.993 127.578 79.9368C129.524 79.3481 131.43 78.6375 133.285 77.8091C135.131 76.9697 136.919 76.0074 138.634 74.9286C139.671 74.2887 140.67 73.5934 141.639 72.8604C142.959 71.8666 144.537 71.2667 146.187 71.1309C154.793 74.4294 159.291 65.8077 159.291 65.8077C157.847 67.1826 155.441 66.7012 151.385 67.5392C147.936 68.2524 146.644 70.075 146.337 70.6039C145.507 70.7089 144.774 70.7782 144.169 70.8218C144.718 70.3424 145.248 69.8452 145.782 69.3519L146.849 68.2801C147.21 67.9295 147.535 67.5431 147.878 67.1747C149.232 65.6862 150.479 64.1062 151.613 62.4458L151.682 62.3428C152.23 61.5291 152.978 60.8682 153.856 60.4231L154.282 60.2032C163.506 59.8585 164.224 50.177 164.224 50.177C163.438 52.0075 161.036 52.4988 157.638 54.8603Z" fill="white"/>
</svg>
