<svg width="42" height="42" viewBox="0 0 42 42" fill="none" xmlns="http://www.w3.org/2000/svg">
<path d="M24.0274 6.14243L27.1074 12.3024C27.5274 13.1599 28.6474 13.9824 29.5924 14.1399L35.1749 15.0674C38.7449 15.6624 39.5849 18.2524 37.0124 20.8074L32.6724 25.1474C31.9374 25.8824 31.5349 27.2999 31.7624 28.3149L33.0049 33.6874C33.9849 37.9399 31.7274 39.5849 27.9649 37.3624L22.7324 34.2649C21.7874 33.7049 20.2299 33.7049 19.2674 34.2649L14.0349 37.3624C10.2899 39.5849 8.01493 37.9224 8.99493 33.6874L10.2374 28.3149C10.4649 27.2999 10.0624 25.8824 9.32743 25.1474L4.98743 20.8074C2.43243 18.2524 3.25493 15.6624 6.82493 15.0674L12.4074 14.1399C13.3349 13.9824 14.4549 13.1599 14.8749 12.3024L17.9549 6.14243C19.6349 2.79993 22.3649 2.79993 24.0274 6.14243Z" stroke="#F0BB6D" stroke-width="1.5" stroke-linecap="round" stroke-linejoin="round"/>
<path d="M20.682 20.994C22.0633 20.994 23.0853 21.2647 23.748 21.806C24.4107 22.338 24.742 23.066 24.742 23.99C24.742 24.578 24.5973 25.11 24.308 25.586C24.0187 26.062 23.5847 26.44 23.006 26.72C22.4273 27 21.7133 27.14 20.864 27.14C20.164 27.14 19.4873 27.042 18.834 26.846C18.1807 26.6407 17.63 26.3607 17.182 26.006L17.952 24.592C18.316 24.8907 18.75 25.1287 19.254 25.306C19.7673 25.474 20.2947 25.558 20.836 25.558C21.48 25.558 21.984 25.4273 22.348 25.166C22.7213 24.8953 22.908 24.5267 22.908 24.06C22.908 23.556 22.7073 23.178 22.306 22.926C21.914 22.6647 21.2373 22.534 20.276 22.534H17.91L18.414 17.2H24.168V18.726H19.954L19.744 20.994H20.682Z" fill="#F0BB6D"/>
</svg>
