<svg width="154" height="100" viewBox="0 0 154 100" fill="none" xmlns="http://www.w3.org/2000/svg">
<rect x="0.5" y="0.5" width="153" height="99" rx="4.5" fill="#1DA1F2" stroke="#2B3942"/>
<path d="M66.9776 71C87.3464 71 98.492 54.0585 98.492 39.3918C98.492 38.9151 98.492 38.4385 98.4704 37.9619C100.63 36.3804 102.51 34.4306 104 32.2209C101.97 33.1091 99.8312 33.7157 97.628 33.9757C99.9392 32.5892 101.667 30.4011 102.488 27.823C100.306 29.1229 97.9304 30.0328 95.4464 30.5094C91.256 26.0249 84.236 25.8082 79.7648 30.0328C76.892 32.7408 75.6608 36.792 76.568 40.6483C67.6904 40.1933 59.3744 35.9688 53.7584 29.0362C50.8208 34.1057 52.3112 40.605 57.1928 43.8546C55.4216 43.8113 53.7152 43.3347 52.16 42.4681C52.16 42.5114 52.16 42.5547 52.16 42.5981C52.16 47.8842 55.8752 52.4337 61.0592 53.4952C59.4176 53.9502 57.7112 54.0152 56.048 53.6902C57.4952 58.218 61.664 61.316 66.3944 61.4027C62.4632 64.5007 57.6248 66.1689 52.6352 66.1689C51.7496 66.1689 50.864 66.1039 50 66.0172C55.076 69.2885 60.9512 71 66.9776 71Z" fill="white"/>
</svg>
