<svg width="25" height="25" viewBox="0 0 25 25"  xmlns="http://www.w3.org/2000/svg">
<path d="M23.7825 3.82036C22.8249 4.49584 21.7646 5.01247 20.6425 5.35036C20.0402 4.65787 19.2398 4.16705 18.3495 3.94428C17.4592 3.72152 16.522 3.77755 15.6646 4.10481C14.8071 4.43207 14.0709 5.01476 13.5555 5.77408C13.04 6.53339 12.7702 7.43269 12.7825 8.35036V9.35036C11.0251 9.39593 9.28374 9.00617 7.71348 8.2158C6.14321 7.42544 4.79279 6.25899 3.78247 4.82036C3.78247 4.82036 -0.217529 13.8204 8.78247 17.8204C6.723 19.2183 4.26963 19.9193 1.78247 19.8204C10.7825 24.8204 21.7825 19.8204 21.7825 8.32036C21.7815 8.04181 21.7548 7.76395 21.7025 7.49036C22.7231 6.48385 23.4433 5.21307 23.7825 3.82036Z" />
</svg>
