<svg width="105" height="171" viewBox="0 0 105 171" fill="none" xmlns="http://www.w3.org/2000/svg">
<path d="M14.1524 -1.57775e-05C12.8045 1.4776 -11.8617 30.2239 14.1524 36C40.5709 30.2239 15.5003 1.4776 14.1524 -1.57775e-05Z" fill="#FFA776"/>
<path d="M14.1522 10.8806C13.4782 11.6866 -0.270157 27.6716 14.1522 30.8955C28.9789 27.6716 14.9609 11.6866 14.1522 10.8806Z" fill="#FF7A00"/>
<path d="M7.95264 77.7758L7.95264 116.597L16.1747 116.597L16.1747 77.7758L7.95264 77.7758Z" fill="#FF7A00"/>
<path d="M5.3916 48.2239L5.3916 61.5224L5.3916 77.7761L16.1747 77.7761L16.1747 116.597L5.3916 116.597L5.3916 154.209L23.0489 154.209L23.0489 48.0896L5.3916 48.0896L5.3916 48.2239Z" fill="#FFA776"/>
<path d="M23.0483 38.9552L23.0483 154.209L28.0355 154.209L98.1254 171L105 142.657L34.9097 125.866L34.9097 38.9552L23.0483 38.9552Z" fill="#FF7A00"/>
<path d="M7.95264 38.955L7.95264 45.5371L21.5662 45.5371L21.5662 38.955L7.95264 38.955Z" fill="#FF7A00"/>
<path d="M0.134788 48.0896L-2.05509e-07 56.821L5.39153 61.5225L5.39153 48.0896L0.134788 48.0896Z" fill="#FF7A00"/>
<path d="M37.8755 83.1491L37.8755 116.463L37.8755 122.507L65.9114 129.224L70.0899 130.164L70.0899 128.955L70.0899 110.686L70.0899 102.627L70.0899 98.9999C70.0899 89.9999 62.8113 82.7461 53.7805 82.7462L38.1451 82.7462C38.0103 83.0148 37.8755 83.0148 37.8755 83.1491ZM55.3979 90.5372C61.1938 90.5372 65.9114 95.2387 65.9114 101.015L65.9114 112.03C65.9114 117.806 61.1938 122.507 55.3979 122.507L52.5674 122.507C46.7715 122.507 42.0539 117.806 42.0539 112.03L42.0539 101.149C42.0539 95.373 46.7715 90.6715 52.5674 90.6715L55.3979 90.6715L55.3979 90.5372Z" fill="#FFA776"/>
<path d="M43.1328 113.373L45.559 113.239L45.6938 112.164C45.6938 112.164 59.0378 113.507 59.1726 107.463C59.1726 107.463 49.3331 109.881 47.3113 107.866C45.4242 105.985 42.998 104.104 42.998 104.104L42.998 113.373L43.1328 113.373Z" fill="#FF7A00"/>
</svg>
