<svg width="117" height="185" viewBox="0 0 117 185" fill="none" xmlns="http://www.w3.org/2000/svg">
<path opacity="0.5" d="M91.461 141.753H22.6656C10.8539 141.753 1.11719 151.523 1.11719 163.376C1.11719 175.229 10.8539 185 22.6656 185H91.461C103.273 185 113.009 175.229 113.009 163.376C113.009 151.523 103.432 141.753 91.461 141.753ZM69.7529 163.536L57.3027 183.238L44.8525 163.536L32.4023 143.835H57.3027H82.2031L69.7529 163.536Z" fill="#FF9838"/>
<path d="M64.9646 148.961C63.6876 151.684 60.9741 153.446 57.7818 153.446C54.5894 153.446 51.8759 151.684 50.5989 148.961L45.0123 151.524L39.1064 154.086L45.0123 163.377L57.4625 183.078L69.9127 163.377L75.9782 153.606L71.03 151.364L64.9646 148.961Z" fill="#FFA776"/>
<path d="M70.8703 139.19L67.9971 140.471L64.9644 141.753C63.6875 139.03 60.974 137.268 57.7816 137.268C54.5892 137.268 51.8757 139.03 50.5988 141.753L45.491 139.35L44.8525 139.03L30.8062 132.943V145.437V157.93L38.9467 154.407L44.8525 151.844L50.4392 149.281C51.7161 151.844 54.4296 153.766 57.622 153.766C60.8143 153.766 63.5278 151.844 64.8048 149.281L70.7107 151.844L75.6588 154.086L84.757 158.091V145.597V132.943L70.8703 139.19Z" fill="#FF7A00"/>
<path d="M71.5089 24.9863H31.6044C20.4311 24.9863 11.3329 34.1162 11.3329 45.4885V58.3023C10.854 58.3023 10.3752 58.1422 10.0559 58.1422C9.25784 58.1422 8.61937 58.3023 7.82128 58.4625C3.35198 59.4236 0 63.4279 0 68.2331C0 73.9993 4.4693 78.4842 10.0559 78.4842C10.5348 78.4842 11.0136 78.4842 11.3329 78.324V102.83C11.3329 115.805 21.8677 126.536 34.7967 126.536H45.4911V139.35L50.5989 141.592C51.8759 139.03 54.5894 137.108 57.7817 137.108C60.9741 137.108 63.6876 139.03 64.9645 141.592L67.9973 140.311V126.536H68.4761C81.4052 126.536 91.94 115.965 91.94 102.83V72.3976V45.4885C91.7803 34.2764 82.6821 24.9863 71.5089 24.9863Z" fill="#FFA776"/>
<path d="M107.423 59.1032C106.146 58.4625 104.55 58.1422 102.954 58.1422V45.4885C102.954 34.2764 93.8553 24.9863 82.682 24.9863H71.5088C82.682 24.9863 91.7803 34.1162 91.7803 45.4885V72.3976V102.991C91.7803 115.965 81.2455 126.696 68.3164 126.696H79.4897C92.4187 126.696 102.954 116.125 102.954 102.991V78.4842C108.54 78.4842 113.009 73.8391 113.009 68.2331C113.009 64.2287 110.775 60.7049 107.423 59.1032Z" fill="#FF9838"/>
<path d="M42.1389 85.0518H73.1048C75.3394 85.0518 77.0952 86.8137 77.0952 89.0561V93.0604H38.1484V89.0561C38.1484 86.9738 39.9042 85.0518 42.1389 85.0518Z" fill="#FF7A00"/>
<path d="M65.4434 74.4804C64.3261 73.5194 62.5703 68.8744 61.1337 65.1904C60.6548 63.7488 60.3356 62.1471 60.3356 60.5454V57.6623C60.3356 56.8614 59.6971 56.2207 58.7394 56.2207H57.7817C57.7817 56.2207 57.7817 56.2207 57.6221 56.2207C57.6221 56.2207 57.6221 56.2207 57.4625 56.2207H56.5048C55.7067 56.2207 54.9086 56.8614 54.9086 57.6623V60.3852C54.9086 61.9869 54.5894 63.5887 54.1105 65.0302C52.6739 68.7142 50.9181 73.3592 49.8008 74.3203C47.8854 76.0822 42.1391 83.6103 47.4065 83.4501C51.0778 83.29 54.749 83.4501 56.3452 83.4501H56.5048H57.4625C57.4625 83.4501 57.4625 83.4501 57.6221 83.4501C57.6221 83.4501 57.6221 83.4501 57.7817 83.4501H58.7394H58.899C60.6548 83.4501 64.1664 83.4501 67.8377 83.4501C73.105 83.6103 67.1992 76.2424 65.4434 74.4804Z" fill="#FF7A00"/>
<path d="M79.1705 97.5459C79.0109 97.5459 79.0109 97.5459 78.8513 97.5459H36.8718C36.5525 97.5459 36.2333 97.5459 35.9141 97.3857C35.9141 103.632 39.7449 109.078 45.6508 112.282C46.4489 109.239 51.397 106.996 57.1433 106.996C63.2087 106.996 68.1569 109.399 68.7954 112.602C75.0205 109.559 79.1705 103.953 79.1705 97.5459Z" fill="#FF7A00"/>
<path d="M57.303 107.156C51.3972 107.156 46.6086 109.399 45.8105 112.442C46.449 112.762 47.0875 113.083 47.726 113.403C50.7587 114.684 54.1107 115.485 57.7819 115.485C61.4531 115.485 64.8051 114.684 67.8378 113.403C68.3167 113.243 68.7955 112.922 69.1148 112.762C68.3167 109.559 63.3685 107.156 57.303 107.156Z" fill="#FFA776"/>
<path d="M116.521 7.84848H105.667H104.709L110.136 0.800866C110.296 0.480519 110.136 0 109.657 0H94.334H78.2126H26.8156C15.9616 0 7.18262 8.9697 7.18262 19.8615V53.3377C7.18262 53.3377 7.18262 53.3377 7.18262 53.4978V55.0996V62.4675H22.1867C23.6233 69.8355 30.008 75.4416 37.6697 75.4416C46.289 75.4416 53.4718 68.3939 53.4718 59.5844C53.4718 58.7836 53.3122 57.8225 53.3122 57.0216C54.2699 55.9004 55.8661 55.2597 57.6219 55.2597C59.3777 55.2597 60.8143 55.9004 61.772 56.8615C61.6124 57.6623 61.4527 58.6234 61.4527 59.5844C61.4527 68.2338 68.4759 75.4416 77.2549 75.4416C84.9166 75.4416 91.3013 69.8355 92.7379 62.4675H105.827H107.263H108.221V53.1775V23.8658C108.221 23.7056 108.221 23.7056 108.221 23.7056L111.254 18.2597L116.681 8.64935C117 8.329 116.84 7.84848 116.521 7.84848ZM51.3968 61.987C50.4391 67.7532 45.8102 72.3983 40.0639 73.3593C30.6465 74.961 22.5059 66.7922 24.1021 57.342C25.0598 51.5758 29.6888 46.9307 35.435 45.9697C44.8525 44.368 52.993 52.3766 51.3968 61.987ZM91.1417 61.1861C90.3436 68.0736 84.5974 73.3593 77.5742 73.5195C70.0721 73.6797 63.6874 67.5931 63.5278 60.0649C63.3682 52.2164 69.5933 45.6493 77.4145 45.6493C84.5974 45.6493 90.3436 51.0952 91.1417 57.9827V61.1861ZM98.1649 56.2208H92.7379C91.6205 51.4156 88.5878 47.5714 84.2781 45.4892V42.9264H89.7051V37H70.3913V42.9264V45.4892C66.5605 47.4113 63.5278 50.9351 62.2508 55.2597C61.2931 54.1385 59.5373 53.3377 57.6219 53.3377C55.5469 53.3377 53.9507 54.1385 52.8334 55.4199C51.5564 51.0952 48.6833 47.4113 44.6928 45.4892V42.9264V37H25.3791V42.9264H30.8061V45.4892C26.9752 47.4113 24.1021 50.7749 22.6656 54.9394H16.9193V38.1212C16.9193 32.9957 19.9521 28.3506 24.581 26.5887C26.9753 25.6277 29.5291 25.1472 32.083 25.1472H71.5087H82.2031C85.5551 25.1472 88.5878 25.9481 91.4609 27.3896C95.611 29.4719 98.1649 33.7965 98.1649 38.4416V56.2208Z" fill="#FF7A00"/>
<path d="M37.6698 55.0996C34.1582 55.0996 31.2851 57.8226 31.1255 61.3464H44.0545C44.0545 57.9827 41.1814 55.0996 37.6698 55.0996Z" fill="#FF7A00"/>
<path d="M77.7338 55.0996C74.2222 55.0996 71.3491 57.8226 71.1895 61.3464H84.1185C84.1185 57.9827 81.2454 55.0996 77.7338 55.0996Z" fill="#FF7A00"/>
</svg>
