<svg width="137" height="123" viewBox="0 0 137 123" fill="none" xmlns="http://www.w3.org/2000/svg">
<g clip-path="url(#clip0)">
<path d="M134.126 21.3496V26.6074H129.815V21.9869H116.242H20.7576H7.18531V26.6074H2.87413V21.3496H0V43.3367H2.87413V38.0789H7.18531V42.6993H20.7576H116.242H129.815V38.0789H134.126V43.3367H136.84V21.3496H134.126Z" fill="#FF7A00"/>
<path d="M20.7676 -0.016346L20.7676 55.9072L116.412 55.9072V-0.016346L20.7676 -0.016346Z" fill="#FF9838"/>
<path d="M87.6605 13.0654H49.3389V17.5266H87.6605V13.0654Z" fill="#FF7A00"/>
<path d="M102.83 22.7842H34.4893V27.2453H102.83V22.7842Z" fill="#FF7A00"/>
<path d="M102.83 32.1846H34.4893V36.6457H102.83V32.1846Z" fill="#FF7A00"/>
<path d="M125.823 60.703V42.8584H81.4334C80.9544 49.0721 76.1642 53.8519 69.9369 54.6486C69.4579 54.6486 68.9788 54.8079 68.3402 54.8079C67.7015 54.8079 67.2224 54.8079 66.5837 54.6486C60.5161 53.8519 55.8856 48.9128 55.4066 42.8584H11.177V60.703H4.79004V123H130.613V60.703H125.823Z" fill="#FFA776"/>
<path d="M69.9366 54.6479V44.6104H66.5835V54.6479C67.2222 54.6479 67.7012 54.8072 68.3399 54.8072C68.9786 54.6479 69.4576 54.6479 69.9366 54.6479Z" fill="#FF7A00"/>
<path d="M130.613 113.281V59.2695H17.2446V105.156H4.4707V113.281H17.2446V123H130.613H137V113.281H130.613Z" fill="#FF9838"/>
<path d="M68.3403 113.281H0V123H68.3403V113.281Z" fill="#FFA776"/>
<path d="M32.7335 75.0435C34.9382 75.0435 36.7254 73.2601 36.7254 71.0603C36.7254 68.8605 34.9382 67.0771 32.7335 67.0771C30.5289 67.0771 28.7417 68.8605 28.7417 71.0603C28.7417 73.2601 30.5289 75.0435 32.7335 75.0435Z" fill="#FF7A00"/>
<path d="M44.7091 75.0435C46.9138 75.0435 48.701 73.2601 48.701 71.0603C48.701 68.8605 46.9138 67.0771 44.7091 67.0771C42.5045 67.0771 40.7173 68.8605 40.7173 71.0603C40.7173 73.2601 42.5045 75.0435 44.7091 75.0435Z" fill="#FF7A00"/>
<path d="M56.6847 75.0435C58.8893 75.0435 60.6766 73.2601 60.6766 71.0603C60.6766 68.8605 58.8893 67.0771 56.6847 67.0771C54.4801 67.0771 52.6929 68.8605 52.6929 71.0603C52.6929 73.2601 54.4801 75.0435 56.6847 75.0435Z" fill="#FF7A00"/>
<path d="M68.6603 75.0435C70.8649 75.0435 72.6521 73.2601 72.6521 71.0603C72.6521 68.8605 70.8649 67.0771 68.6603 67.0771C66.4557 67.0771 64.6685 68.8605 64.6685 71.0603C64.6685 73.2601 66.4557 75.0435 68.6603 75.0435Z" fill="#FF7A00"/>
<path d="M80.6354 75.0435C82.84 75.0435 84.6272 73.2601 84.6272 71.0603C84.6272 68.8605 82.84 67.0771 80.6354 67.0771C78.4308 67.0771 76.6436 68.8605 76.6436 71.0603C76.6436 73.2601 78.4308 75.0435 80.6354 75.0435Z" fill="#FF7A00"/>
<path d="M92.611 75.0435C94.8156 75.0435 96.6028 73.2601 96.6028 71.0603C96.6028 68.8605 94.8156 67.0771 92.611 67.0771C90.4063 67.0771 88.6191 68.8605 88.6191 71.0603C88.6191 73.2601 90.4063 75.0435 92.611 75.0435Z" fill="#FF7A00"/>
<path d="M104.587 75.0435C106.791 75.0435 108.578 73.2601 108.578 71.0603C108.578 68.8605 106.791 67.0771 104.587 67.0771C102.382 67.0771 100.595 68.8605 100.595 71.0603C100.595 73.2601 102.382 75.0435 104.587 75.0435Z" fill="#FF7A00"/>
<path d="M32.7335 96.2339C34.9382 96.2339 36.7254 94.4506 36.7254 92.2507C36.7254 90.0509 34.9382 88.2676 32.7335 88.2676C30.5289 88.2676 28.7417 90.0509 28.7417 92.2507C28.7417 94.4506 30.5289 96.2339 32.7335 96.2339Z" fill="#FF7A00"/>
<path d="M44.7091 96.2339C46.9138 96.2339 48.701 94.4506 48.701 92.2507C48.701 90.0509 46.9138 88.2676 44.7091 88.2676C42.5045 88.2676 40.7173 90.0509 40.7173 92.2507C40.7173 94.4506 42.5045 96.2339 44.7091 96.2339Z" fill="#FF7A00"/>
<path d="M56.6847 96.2339C58.8893 96.2339 60.6766 94.4506 60.6766 92.2507C60.6766 90.0509 58.8893 88.2676 56.6847 88.2676C54.4801 88.2676 52.6929 90.0509 52.6929 92.2507C52.6929 94.4506 54.4801 96.2339 56.6847 96.2339Z" fill="#FF7A00"/>
<path d="M68.6603 96.2339C70.8649 96.2339 72.6521 94.4506 72.6521 92.2507C72.6521 90.0509 70.8649 88.2676 68.6603 88.2676C66.4557 88.2676 64.6685 90.0509 64.6685 92.2507C64.6685 94.4506 66.4557 96.2339 68.6603 96.2339Z" fill="#FF7A00"/>
<path d="M80.6354 96.2339C82.84 96.2339 84.6272 94.4506 84.6272 92.2507C84.6272 90.0509 82.84 88.2676 80.6354 88.2676C78.4308 88.2676 76.6436 90.0509 76.6436 92.2507C76.6436 94.4506 78.4308 96.2339 80.6354 96.2339Z" fill="#FF7A00"/>
<path d="M92.611 96.2339C94.8156 96.2339 96.6028 94.4506 96.6028 92.2507C96.6028 90.0509 94.8156 88.2676 92.611 88.2676C90.4063 88.2676 88.6191 90.0509 88.6191 92.2507C88.6191 94.4506 90.4063 96.2339 92.611 96.2339Z" fill="#FF7A00"/>
<path d="M104.587 96.2339C106.791 96.2339 108.578 94.4506 108.578 92.2507C108.578 90.0509 106.791 88.2676 104.587 88.2676C102.382 88.2676 100.595 90.0509 100.595 92.2507C100.595 94.4506 102.382 96.2339 104.587 96.2339Z" fill="#FF7A00"/>
<path d="M26.985 85.8784C29.1896 85.8784 30.9768 84.0951 30.9768 81.8953C30.9768 79.6954 29.1896 77.9121 26.985 77.9121C24.7804 77.9121 22.9932 79.6954 22.9932 81.8953C22.9932 84.0951 24.7804 85.8784 26.985 85.8784Z" fill="#FF7A00"/>
<path d="M38.9606 85.8784C41.1652 85.8784 42.9524 84.0951 42.9524 81.8953C42.9524 79.6954 41.1652 77.9121 38.9606 77.9121C36.756 77.9121 34.9688 79.6954 34.9688 81.8953C34.9688 84.0951 36.756 85.8784 38.9606 85.8784Z" fill="#FF7A00"/>
<path d="M50.9362 85.8784C53.1408 85.8784 54.928 84.0951 54.928 81.8953C54.928 79.6954 53.1408 77.9121 50.9362 77.9121C48.7315 77.9121 46.9443 79.6954 46.9443 81.8953C46.9443 84.0951 48.7315 85.8784 50.9362 85.8784Z" fill="#FF7A00"/>
<path d="M62.9118 85.8784C65.1164 85.8784 66.9036 84.0951 66.9036 81.8953C66.9036 79.6954 65.1164 77.9121 62.9118 77.9121C60.7071 77.9121 58.9199 79.6954 58.9199 81.8953C58.9199 84.0951 60.7071 85.8784 62.9118 85.8784Z" fill="#FF7A00"/>
<path d="M74.8873 85.8784C77.092 85.8784 78.8792 84.0951 78.8792 81.8953C78.8792 79.6954 77.092 77.9121 74.8873 77.9121C72.6827 77.9121 70.8955 79.6954 70.8955 81.8953C70.8955 84.0951 72.6827 85.8784 74.8873 85.8784Z" fill="#FF7A00"/>
<path d="M86.8624 85.8784C89.0671 85.8784 90.8543 84.0951 90.8543 81.8953C90.8543 79.6954 89.0671 77.9121 86.8624 77.9121C84.6578 77.9121 82.8706 79.6954 82.8706 81.8953C82.8706 84.0951 84.6578 85.8784 86.8624 85.8784Z" fill="#FF7A00"/>
<path d="M98.5187 85.8784C100.723 85.8784 102.511 84.0951 102.511 81.8953C102.511 79.6954 100.723 77.9121 98.5187 77.9121C96.3141 77.9121 94.5269 79.6954 94.5269 81.8953C94.5269 84.0951 96.3141 85.8784 98.5187 85.8784Z" fill="#FF7A00"/>
<path d="M110.335 85.8784C112.539 85.8784 114.326 84.0951 114.326 81.8953C114.326 79.6954 112.539 77.9121 110.335 77.9121C108.13 77.9121 106.343 79.6954 106.343 81.8953C106.343 84.0951 108.13 85.8784 110.335 85.8784Z" fill="#FF7A00"/>
<path d="M102.351 105.634H34.9689C33.2125 105.634 31.7754 104.2 31.7754 102.447C31.7754 100.695 33.2125 99.2607 34.9689 99.2607H102.511C104.267 99.2607 105.704 100.695 105.704 102.447C105.545 104.2 104.108 105.634 102.351 105.634Z" fill="#FF7A00"/>
</g>
<defs>
<clipPath id="clip0">
<rect width="137" height="123" fill="white"/>
</clipPath>
</defs>
</svg>
