<svg width="135" height="113" viewBox="0 0 135 113" fill="none" xmlns="http://www.w3.org/2000/svg">
  <path
    d="M123.852 59.0851V43.1569H125.066H129.702V27.5605H100.781L97.5005 38.0005L94.7102 43.2675V124.015C94.7102 136.182 85.922 145.178 74.0005 147.5L62.5884 148.681L78.263 172.684V162.397H88.0872V165.384H93.9375V153.659H88.0872V156.645H78.263V149.345H98.6841C112.592 149.345 123.741 138.062 123.741 124.236V78.3317C127.826 77.5574 131.027 74.0178 131.027 69.7039V67.7129C131.027 63.399 127.936 59.7488 123.852 59.0851Z"
    fill="#FF7A00" />
  <path
    d="M100.781 172.574H78.2625L63.8021 149.013H68.7694C83.1194 149.013 94.7098 137.731 94.7098 123.904V43.1569H100.781V27.5605H10.3761V43.2675H14.2396V59.3064C10.5969 60.3019 7.83729 63.7309 7.83729 67.7129V69.7039C7.83729 73.7966 10.5969 77.115 14.2396 78.1105V125.563C14.2396 138.505 24.7261 149.124 37.7514 149.124H54.861V172.684H18.5446C8.38921 172.574 0 180.98 0 191.267V195.581C2.42846 194.696 5.07768 194.254 7.83729 194.254H119.325V191.267C119.325 180.98 110.936 172.574 100.781 172.574Z"
    fill="#FFA776" />
  <path
    d="M70.4255 22.8041C70.2048 22.4723 69.8736 22.1404 69.5425 21.8086C69.6529 22.1404 69.7632 22.4723 69.8736 22.8041C70.0944 22.8041 70.2048 22.8041 70.4255 22.8041Z"
    fill="#828282" />
  <path
    d="M40.1797 20.9237C43.16 20.9237 46.03 21.9192 48.3481 23.5784C50.335 17.716 55.6335 13.5127 61.9254 13.5127C63.8019 13.5127 65.5681 13.8445 67.2238 14.6188C69.873 10.3049 74.3988 7.5396 79.4765 7.31838C76.8273 5.21674 73.4053 4 69.7627 4C64.4642 4 59.8281 6.54409 57.0685 10.3049C55.5231 9.75185 53.7569 9.42001 51.9908 9.42001C45.9196 9.42001 40.7316 13.1808 38.8551 18.269C36.6474 16.8311 33.8878 15.9462 31.0178 15.9462C23.9532 15.9462 18.1028 21.0343 17.2197 27.4499H28.2582C30.797 23.5784 35.2124 20.9237 40.1797 20.9237Z"
    fill="#FCFAFC" />
  <path
    d="M112.603 21.6923C112.382 21.6923 112.161 21.6923 111.94 21.6923C111.718 21.6923 111.608 21.6923 111.387 21.6923C111.276 21.2308 111.165 20.7692 111.055 20.3077C108.732 11.8462 102.981 5.69231 96.2337 5.69231C96.0125 5.69231 95.6807 5.69231 95.4595 5.69231C92.6944 2.46154 89.0445 0.461538 85.0627 0.461538C84.1779 0.461538 83.293 0.615385 82.4082 0.769231C81.081 0.307692 79.7537 0 78.2052 0C77.8734 0 77.6522 0 77.431 0C72.3432 0.307692 67.8084 4.30769 65.0433 10C63.3843 9.07692 61.6146 8.46154 59.7343 8.46154C53.4299 8.46154 48.0103 14.3077 46.13 22.4615C43.8073 20.1538 41.0422 18.7692 37.9453 18.7692C32.9681 18.7692 28.5439 22.4615 26 28H114.262H123C120.456 24.1538 116.696 21.6923 112.603 21.6923Z"
    fill="black" fill-opacity="0.54" />
  <path d="M69.9841 83.1982L73.7372 89.6138L77.4903 96.1399H69.9841H62.5884L66.2311 89.6138L69.9841 83.1982Z"
    fill="#625040" />
  <path
    d="M94.4889 105.984H93.4955V109.856C93.4955 111.957 91.7293 113.727 89.632 113.727H85.7686C83.6713 113.727 81.9051 111.957 81.9051 109.856C81.9051 111.957 80.139 113.727 78.0417 113.727H73.9574C71.8601 113.727 70.094 111.957 70.094 109.856C70.094 111.957 68.3278 113.727 66.2305 113.727H62.3671C60.2698 113.727 58.5036 111.957 58.5036 109.856C58.5036 111.957 56.7375 113.727 54.6402 113.727H50.7767C48.6794 113.727 46.9133 111.957 46.9133 109.856V105.984H45.9198C44.2641 105.984 42.9395 107.312 42.9395 108.971V128.549C42.9395 130.209 44.2641 131.536 45.9198 131.536H47.1341V129.545C47.1341 127.443 48.9002 125.673 50.9975 125.673H54.861C56.9583 125.673 58.7244 127.443 58.7244 129.545C58.7244 127.443 60.4906 125.673 62.5879 125.673H66.4513C68.5486 125.673 70.3148 127.443 70.3148 129.545C70.3148 127.443 72.0809 125.673 74.1782 125.673H78.0417C80.139 125.673 81.9051 127.443 81.9051 129.545C81.9051 127.443 83.6713 125.673 85.7686 125.673H89.632C91.7293 125.673 93.4955 127.443 93.4955 129.545V131.536H94.1578C95.8135 131.536 97.1382 130.209 97.1382 128.549V108.86C97.3589 107.312 96.0343 105.984 94.4889 105.984Z"
    fill="#625040" />
  <path
    d="M50.446 113.839H54.3095C56.4068 113.839 58.1729 112.069 58.1729 109.967V106.096H46.4722V109.967C46.4722 112.069 48.2383 113.839 50.446 113.839Z"
    fill="white" />
  <path
    d="M62.1462 113.838H66.0096C68.1069 113.838 69.8731 112.068 69.8731 109.966V106.095H58.2827V109.966C58.2827 112.068 60.0489 113.838 62.1462 113.838Z"
    fill="white" />
  <path
    d="M73.9572 113.838H77.8207C79.918 113.838 81.6841 112.068 81.6841 109.966V106.095H69.9834V109.966C69.9834 112.068 71.7495 113.838 73.9572 113.838Z"
    fill="white" />
  <path
    d="M85.6584 113.838H89.5219C91.6192 113.838 93.3853 112.068 93.3853 109.966V106.095H81.6846V109.966C81.6846 112.068 83.4507 113.838 85.6584 113.838Z"
    fill="white" />
  <path
    d="M48.9003 74.5717H52.7637C58.6141 74.5717 63.3606 69.926 63.471 64.1742L59.7179 63.8423C59.2764 67.7138 56.0752 70.7003 52.1014 70.7003H49.3418C45.1472 70.7003 41.6149 67.2713 41.6149 62.9574C41.6149 62.7362 41.6149 62.515 41.6149 62.2938L38.0826 61.9619C37.9722 62.515 37.8618 63.1786 37.8618 63.8423C38.0826 69.7048 42.9395 74.5717 48.9003 74.5717Z"
    fill="white" />
  <path
    d="M49.4511 70.6995H52.2107C56.1845 70.6995 59.3857 67.713 59.8272 63.8415L50.4445 63.0673L41.8346 62.293C41.8346 62.5142 41.8346 62.7354 41.8346 62.9566C41.7242 67.1599 45.2565 70.6995 49.4511 70.6995Z"
    fill="#5A7676" />
  <path
    d="M111.267 61.0762L101.664 61.8505C101.774 62.4035 101.885 63.0672 101.885 63.7309C101.885 69.704 97.0277 74.4603 91.1774 74.4603H87.2035C81.3532 74.4603 76.6066 69.8146 76.4963 64.0627L70.094 64.6158L63.6917 64.0627C63.4709 69.8146 58.7244 74.4603 52.9844 74.4603H49.1209C43.1602 74.4603 38.4137 69.5933 38.4137 63.7309C38.4137 63.0672 38.524 62.5141 38.6344 61.8505L28.6998 61.0762C28.4791 62.2929 28.2583 63.5097 28.2583 64.7264C28.2583 75.5664 37.8617 84.3048 49.7832 84.3048C58.9451 84.3048 66.7824 78.9954 69.8732 71.5844C72.964 78.9954 80.8012 84.3048 89.9631 84.3048C101.885 84.3048 111.488 75.5664 111.488 64.7264C111.598 63.5097 111.488 62.2929 111.267 61.0762Z"
    fill="#625040" />
  <path
    d="M91.0673 74.5717H87.2039C81.3535 74.5717 76.607 69.926 76.4966 64.1742L80.2496 63.8423C80.6912 67.7138 83.8923 70.7003 87.8662 70.7003H90.5154C94.71 70.7003 98.2423 67.2713 98.2423 62.9574C98.2423 62.7362 98.2423 62.515 98.2423 62.2938L101.775 61.9619C101.885 62.515 101.995 63.1786 101.995 63.8423C101.885 69.7048 97.0281 74.5717 91.0673 74.5717Z"
    fill="white" />
  <path
    d="M90.5143 70.6995H87.7547C83.7809 70.6995 80.5797 67.713 80.1382 63.8415L89.5209 63.0673L98.1308 62.293C98.1308 62.5142 98.1308 62.7354 98.1308 62.9566C98.2412 67.1599 94.8193 70.6995 90.5143 70.6995Z"
    fill="#5A7676" />
</svg>