<svg width="135" height="208" viewBox="0 0 135 208" fill="none" xmlns="http://www.w3.org/2000/svg">
<g clip-path="url(#clip0)">
<path d="M80.2 152.599C78 169.999 75.6 188.899 77 206.599C77.4 206.599 77.9 206.799 78.3 206.999C76.8 189.299 79.2 170.199 81.4 152.699C84.2 130.499 86.6 111.299 81 99.0992C69.4 73.9992 73.6 48.1992 73.7 47.8992L72.5 47.6992C72.5 47.9992 68.2 74.1992 80 99.6992C85.4 111.599 83 130.599 80.2 152.599Z" fill="#FF9838"/>
<path d="M73.0999 60.1997C73.0999 60.1997 74.9999 60.8997 73.7999 62.1997C72.5999 63.4997 68.5999 64.4997 70.4999 65.6997C72.3999 66.8997 78.7999 67.0997 80.4999 65.0997C80.9999 64.3997 78.9999 63.7997 77.3999 62.9997C75.7999 62.1997 76.6999 60.5997 77.6999 60.1997C77.9999 60.0997 73.0999 60.1997 73.0999 60.1997Z" fill="#FF9838"/>
<path d="M77.4001 63.0998C75.8001 62.2998 76.7001 60.6998 77.7001 60.2998C78.0001 60.0998 73.1001 60.2998 73.1001 60.2998C73.1001 60.2998 74.4001 60.7998 74.2001 61.5998C74.7001 63.1998 79.3001 63.2998 77.2001 65.5998C76.3001 66.3998 75.2001 66.4998 74.2001 66.5998C76.7001 66.7998 79.6001 66.3998 80.6001 65.0998C80.9001 64.3998 79.0001 63.8998 77.4001 63.0998Z" fill="#FF7A00"/>
<path d="M99.5 24C99.5 43.4 85.3 60.7 75.5 60.7C65.6 60.7 51.5 43.1 51.5 24C51.5 10.7 62.3 0 75.5 0C88.7 0 99.5 10.8 99.5 24Z" fill="#FF9838"/>
<path d="M75.4999 0C72.0999 0 68.7999 0.7 65.8999 2C67.7999 1.5 69.8999 1.2 71.9999 1.2C85.2999 1.2 93.6999 12.9 93.6999 26.2C93.6999 42.3 85.5999 56.2 77.1999 60.5C86.8999 58.8 99.5999 42.4 99.5999 24C99.4999 10.8 88.6999 0 75.4999 0Z" fill="#FF7A00"/>
<path d="M57.0998 16.1003C60.9998 6.80032 68.1998 4.20032 73.5998 4.70032C78.9998 5.20032 75.8998 8.10032 71.7998 9.10032C67.6998 10.1003 62.3998 15.5003 61.7998 24.6003C61.0998 34.7003 53.1998 25.5003 57.0998 16.1003Z" fill="#FFE37E"/>
<path d="M80.7002 201.299C79.8002 190.699 77.2002 180.499 72.9002 170.699C64.9002 152.599 52.1002 137.699 40.6002 125.299C24.7002 107.899 24.4002 82.4992 24.4002 82.1992H23.2002C23.2002 82.4992 23.5002 108.299 39.7002 126.099C59.4002 147.599 77.0002 169.899 79.5002 201.699C79.9002 201.499 80.3002 201.399 80.7002 201.299Z" fill="#FF9838"/>
<path d="M21.5999 79.0005C21.5999 79.0005 23.4999 79.7005 22.2999 81.0005C21.0999 82.3005 17.0999 83.3005 18.9999 84.5005C20.8999 85.7005 27.2999 85.9005 28.9999 83.9005C29.4999 83.2005 27.4999 82.6005 25.8999 81.8005C24.2999 81.0005 25.1999 79.4005 26.1999 79.0005C26.5999 78.9005 21.5999 79.0005 21.5999 79.0005Z" fill="#FF9838"/>
<path d="M25.9001 81.9006C24.3001 81.1006 25.2001 79.5006 26.2001 79.1006C26.5001 78.9006 21.6001 79.1006 21.6001 79.1006C21.6001 79.1006 22.9001 79.6006 22.7001 80.4006C23.2001 82.0006 27.8001 82.1006 25.7001 84.4006C24.8001 85.2006 23.7001 85.3006 22.7001 85.4006C25.2001 85.6006 28.1001 85.2006 29.1001 83.9006C29.5001 83.2006 27.5001 82.6006 25.9001 81.9006Z" fill="#FF7A00"/>
<path d="M48.1001 42.8008C48.1001 62.2008 33.9001 79.5008 24.1001 79.5008C14.2001 79.5008 0.100098 61.9008 0.100098 42.8008C0.100098 29.5008 10.9001 18.8008 24.1001 18.8008C37.3001 18.8008 48.1001 29.5008 48.1001 42.8008Z" fill="#FF9838"/>
<path d="M23.9999 18.8008C20.5999 18.8008 17.2999 19.5008 14.3999 20.8008C16.2999 20.3008 18.3999 20.0008 20.4999 20.0008C33.7999 20.0008 42.1999 31.7008 42.1999 45.0008C42.1999 61.1008 34.0999 75.0008 25.6999 79.3008C35.3999 77.6008 48.0999 61.2008 48.0999 42.8008C48.0999 29.5008 37.2999 18.8008 23.9999 18.8008Z" fill="#FF7A00"/>
<path d="M5.60008 34.9011C9.50008 25.6011 16.7001 23.0011 22.2001 23.5011C27.6001 24.0011 24.5001 26.9011 20.4001 27.9011C16.3001 28.9011 11.0001 34.3011 10.4001 43.4011C9.70008 53.5011 1.70008 44.3011 5.60008 34.9011Z" fill="#FFE37E"/>
<path d="M24.7002 81.0004C24.6002 81.0004 24.6002 81.0004 24.5002 81.0004C23.9002 81.0004 21.8002 80.8004 21.7002 80.1004C21.6002 79.7004 22.2002 79.5004 22.3002 79.4004H22.4002H22.5002C22.5002 79.4004 23.6002 79.7004 24.6002 79.7004C24.9002 79.7004 25.1002 79.7004 25.3002 79.6004H25.4002C25.7002 79.6004 26.0002 79.9004 26.0002 80.2004C26.0002 80.4004 25.9002 80.6004 25.7002 80.8004C25.4002 80.9004 25.0002 81.0004 24.7002 81.0004ZM22.4002 80.0004C22.7002 80.1004 23.5002 80.3004 24.5002 80.4004C25.1002 80.4004 25.3002 80.3004 25.3002 80.2004C25.1002 80.2004 24.8002 80.3004 24.6002 80.3004C23.6002 80.2004 22.7002 80.0004 22.4002 80.0004Z" fill="#FF9838"/>
<path d="M85.5006 195.4C85.9006 195.3 86.3006 195.3 86.7006 195.4C88.0006 184.4 88.6006 163.4 78.5006 142.9C64.6006 114.6 63.8006 100 63.8006 99.9004L62.6006 100C62.6006 100.6 63.4006 114.9 77.5006 143.5C87.4006 163.7 86.8006 184.6 85.5006 195.4Z" fill="#FF9838"/>
<path d="M61.8001 98.1011C61.8001 98.1011 63.7001 98.8011 62.5001 100.101C61.3001 101.401 57.3001 102.401 59.2001 103.601C61.1001 104.801 67.5001 105.001 69.2001 103.001C69.7001 102.301 67.7001 101.701 66.1001 100.901C64.5001 100.101 65.4001 98.5011 66.4001 98.1011C66.7001 98.0011 61.8001 98.1011 61.8001 98.1011Z" fill="#FF9838"/>
<path d="M66.1003 100.901C64.5003 100.101 65.4003 98.5006 66.4003 98.1006C66.7003 97.9006 61.8003 98.1006 61.8003 98.1006C61.8003 98.1006 63.1003 98.6006 62.9003 99.4006C63.4003 101.001 68.0003 101.101 65.9003 103.401C65.0003 104.201 63.9003 104.301 62.9003 104.401C65.4003 104.601 68.3003 104.201 69.3003 102.901C69.6003 102.301 67.7003 101.701 66.1003 100.901Z" fill="#FF7A00"/>
<path d="M88.2002 61.9004C88.2002 81.3004 74.0002 98.6004 64.2002 98.6004C54.3002 98.6004 40.2002 81.0004 40.2002 61.9004C40.2002 48.6004 51.0002 37.9004 64.2002 37.9004C77.4002 37.9004 88.2002 48.6004 88.2002 61.9004Z" fill="#FF9838"/>
<path d="M64.2001 37.9004C60.8001 37.9004 57.5001 38.6004 54.6001 39.9004C56.5001 39.4004 58.6001 39.1004 60.7001 39.1004C74.0001 39.1004 82.4001 50.8004 82.4001 64.1004C82.4001 80.2004 74.3001 94.1004 65.9001 98.4004C75.6001 96.7004 88.3001 80.3004 88.3001 61.9004C88.2001 48.6004 77.4001 37.9004 64.2001 37.9004Z" fill="#FF7A00"/>
<path d="M45.8 54.0007C49.7 44.7007 56.9 42.1007 62.3 42.6007C67.7 43.1007 64.6 46.0007 60.5 47.0007C56.4 48.0007 51.1 53.4007 50.5 62.5007C49.8 72.6007 41.9 63.4007 45.8 54.0007Z" fill="#FFE37E"/>
<path d="M64.8003 100.3C64.7003 100.3 64.7003 100.3 64.6003 100.3C64.0003 100.3 61.9003 100.1 61.8003 99.4002C61.7003 99.0002 62.3003 98.8002 62.4003 98.7002H62.5003H62.6003C62.6003 98.7002 63.7003 99.0002 64.7003 99.0002C65.0003 99.0002 65.2003 99.0002 65.4003 98.9002H65.5003C65.8003 98.9002 66.1003 99.2002 66.1003 99.5002C66.1003 99.7002 66.0003 99.9002 65.8003 100.1C65.5003 100.2 65.2003 100.3 64.8003 100.3ZM62.5003 99.3002C62.8003 99.4002 63.6003 99.6002 64.6003 99.7002C65.2003 99.7002 65.4003 99.6002 65.4003 99.5002C65.2003 99.5002 64.9003 99.6002 64.7003 99.6002C63.8003 99.5002 62.9003 99.4002 62.5003 99.3002Z" fill="#FF9838"/>
<path d="M110.7 96.3008L109.5 96.4008C109.5 96.7008 111.9 123.101 91.9 152.101C77.3 173.301 73.5 184.601 73.5 194.801C73.9 194.801 74.4 194.801 74.7 195.001C74.7 184.901 78.4 173.801 92.8 152.801C113.2 123.401 110.7 96.5008 110.7 96.3008Z" fill="#FF9838"/>
<path d="M107.6 95.8994C107.6 95.8994 109.5 96.5994 108.3 97.8994C107.1 99.1994 103.1 100.199 105 101.399C106.9 102.599 113.3 102.799 115 100.799C115.5 100.099 113.5 99.4994 111.9 98.6994C110.3 97.8994 111.2 96.2994 112.2 95.8994C112.6 95.6994 107.6 95.8994 107.6 95.8994Z" fill="#FF9838"/>
<path d="M112 98.6994C110.4 97.8994 111.3 96.2994 112.3 95.8994C112.6 95.6994 107.7 95.8994 107.7 95.8994C107.7 95.8994 109 96.3994 108.8 97.1994C109.3 98.7994 113.9 98.8994 111.8 101.199C110.9 101.999 109.8 102.099 108.8 102.199C111.3 102.399 114.2 101.999 115.2 100.699C115.5 100.099 113.5 99.4994 112 98.6994Z" fill="#FF7A00"/>
<path d="M134.1 59.6999C134.1 79.0999 119.9 96.3999 110.1 96.3999C100.2 96.3999 86.1001 78.7999 86.1001 59.6999C86.1001 46.3999 96.9001 35.6999 110.1 35.6999C123.3 35.5999 134.1 46.3999 134.1 59.6999Z" fill="#FF9838"/>
<path d="M110.1 35.5996C106.7 35.5996 103.4 36.2996 100.5 37.5996C102.4 37.0996 104.5 36.7996 106.6 36.7996C119.9 36.7996 128.3 48.4996 128.3 61.7996C128.3 77.8996 120.2 91.7996 111.8 96.0996C121.5 94.3996 134.2 77.9996 134.2 59.5996C134.1 46.3996 123.3 35.5996 110.1 35.5996Z" fill="#FF7A00"/>
<path d="M91.6999 51.7995C95.5999 42.4995 102.8 39.8995 108.2 40.3995C113.6 40.8995 110.5 43.7995 106.4 44.7995C102.3 45.7995 96.9999 51.1995 96.3999 60.2995C95.6999 70.2995 87.7999 61.0995 91.6999 51.7995Z" fill="#FFE37E"/>
<path d="M110.7 98.4994C110.6 98.4994 110.6 98.4994 110.5 98.4994C109.9 98.4994 107.8 98.2994 107.7 97.5994C107.6 97.1994 108.2 96.9994 108.3 96.8994H108.4H108.5C108.5 96.8994 109.6 97.1994 110.6 97.1994C110.9 97.1994 111.1 97.1994 111.3 97.0994H111.4C111.7 97.0994 112 97.3994 112 97.6994C112 97.8994 111.9 98.0994 111.7 98.2994C111.4 98.4994 111.1 98.4994 110.7 98.4994ZM108.4 97.4994C108.7 97.5994 109.5 97.7994 110.5 97.8994C111.1 97.8994 111.3 97.7994 111.3 97.6994C111.1 97.6994 110.8 97.7994 110.6 97.7994C109.7 97.7994 108.7 97.5994 108.4 97.4994Z" fill="#FF9838"/>
</g>
<defs>
<clipPath id="clip0">
<rect width="134.1" height="207.1" fill="white"/>
</clipPath>
</defs>
</svg>
