<svg width="139" height="181" viewBox="0 0 139 181" fill="none" xmlns="http://www.w3.org/2000/svg">
  <path
    d="M94.208 57.7536C94.6414 58.4702 95.0749 59.1867 95.5084 59.9033C96.0864 61.0497 96.5198 62.1962 96.9533 63.486C97.3868 64.9191 97.5313 66.3522 97.5313 67.7853V105.046C97.5313 114.504 89.7288 122.243 80.1924 122.243H98.2537C107.79 122.243 115.593 114.504 115.593 105.046V67.7853C115.593 66.3522 115.448 64.9191 115.015 63.486C117.904 61.7663 119.927 58.6135 119.927 54.8874C119.927 54.4575 119.927 54.0276 119.783 53.5977C112.558 55.1741 103.6 56.4638 93.7745 57.0371C93.919 57.3237 94.0635 57.467 94.208 57.7536Z"
    fill="#414141" />
  <path
    d="M97.5313 105.046V67.7853C97.5313 66.3522 97.3868 64.9191 96.9534 63.486C95.364 64.3459 93.6301 64.9191 91.7517 64.9191C93.6301 64.9191 95.364 64.3459 96.9534 63.486C96.6644 62.1962 96.2309 61.0498 95.5085 59.9033C95.075 59.1867 94.6415 58.4702 94.208 57.7536C94.0635 57.6103 93.9191 57.3237 93.7746 57.1804C88.1394 57.6103 82.0708 57.7536 75.8577 57.7536C58.6633 57.7536 43.2028 56.1772 31.9326 53.5977C31.9326 54.0276 31.7881 54.4575 31.7881 54.8874C31.7881 56.4638 32.2216 58.0403 32.944 59.33C33.9554 61.4797 35.8338 63.1994 38.0012 64.0593C37.7122 65.2057 37.5677 66.4955 37.5677 67.642V104.902C37.5677 114.361 45.3702 122.1 54.9066 122.1H80.1924C89.7288 122.243 97.5313 114.361 97.5313 105.046Z"
    fill="#5A7676" />
  <path
    d="M94.208 57.7539C94.6415 58.4705 95.075 59.187 95.5084 59.9036C95.2194 59.0437 94.6415 58.3271 94.208 57.7539Z"
    fill="#FFFF00" />
  <path
    d="M94.2079 57.7539C94.0634 57.6106 93.9189 57.324 93.7744 57.1807C93.9189 57.324 94.0634 57.4673 94.2079 57.7539Z"
    fill="#FFFF00" />
  <path
    d="M93.7743 57.0373C93.1964 56.3208 92.4739 55.4609 91.7515 54.8877C92.4739 55.6042 93.0519 56.3208 93.7743 57.0373Z"
    fill="#FF0000" />
  <path
    d="M89.7285 53.3115C90.451 53.7415 91.1734 54.3147 91.7514 54.8879C91.0289 54.3147 90.451 53.8848 89.7285 53.3115Z"
    fill="#FF0000" />
  <path
    d="M111.98 31.6719C112.125 33.105 111.836 34.2514 111.258 34.8247C107.79 38.2641 87.2726 38.9807 79.4701 39.124C79.4701 39.124 78.8921 39.124 78.0252 39.124C77.1582 39.124 76.5803 39.124 76.5803 39.124C68.9223 38.9807 48.2601 38.2641 44.7923 34.8247C44.0699 34.1081 43.9254 32.8183 44.0699 31.0986C25.4306 33.5349 13.0044 38.1208 13.0044 43.4233C13.0044 47.4359 20.2289 51.0187 31.9327 53.5982C43.2029 56.1778 58.8079 57.7542 75.8578 57.7542C82.0709 57.7542 88.1395 57.6109 93.7747 57.181C93.1967 56.4644 92.4743 55.6046 91.7518 55.0313C92.4743 55.7479 93.1967 56.4644 93.7747 57.181C103.745 56.4644 112.703 55.318 119.783 53.7415C131.487 51.0187 138.711 47.2926 138.711 43.4233C138.711 38.5507 128.163 34.2514 111.98 31.6719Z"
    fill="#FF7A00" />
  <path
    d="M111.98 31.6716C111.836 29.6652 111.258 26.9424 110.247 24.0762C104.756 26.9424 86.6946 27.5156 79.47 27.6589C79.47 27.6589 78.8921 27.6589 78.0251 27.6589C77.1582 27.6589 76.5802 27.6589 76.5802 27.6589C69.5002 27.5156 51.2944 26.9424 45.8037 24.0762C44.9368 26.6557 44.3588 29.092 44.0698 31.0983C53.3172 29.8086 64.154 29.092 75.8578 29.092C89.2954 29.092 101.722 29.9519 111.98 31.6716Z"
    fill="black" />
  <path
    d="M44.7918 34.8242C48.2596 38.2636 68.7773 38.9802 76.5798 39.1235C76.5798 39.1235 77.1578 39.1235 78.0247 39.1235C78.8916 39.1235 79.4696 39.1235 79.4696 39.1235C87.1276 38.9802 107.79 38.2636 111.258 34.8242C111.836 34.2509 111.98 33.1045 111.98 31.6714C101.721 30.095 89.295 29.0918 75.8573 29.0918C64.2981 29.0918 53.4613 29.8083 44.0694 31.0981C43.9249 32.6745 44.0694 34.1076 44.7918 34.8242Z"
    fill="black" />
  <path
    d="M76.5802 27.6584C76.5802 27.6584 77.1582 27.6584 78.0251 27.6584C78.8921 27.6584 79.47 27.6584 79.47 27.6584C86.5501 27.5151 104.756 26.9418 110.247 24.0756C106.779 13.7574 99.6987 0.429563 99.6987 0.429563C99.6987 0.429563 85.2497 -1.00353 79.47 1.86266C78.8921 2.14928 78.4586 2.72252 78.0251 3.43906C77.5917 2.57921 77.1582 2.00597 76.5802 1.86266C70.8006 -1.00353 56.3515 0.429563 56.3515 0.429563C56.3515 0.429563 49.2715 13.9007 45.8037 24.0756C51.2944 26.7985 69.3557 27.3718 76.5802 27.6584C76.5802 27.5151 76.5802 27.6584 76.5802 27.6584Z"
    fill="#FF7A00" />
  <path
    d="M75.8575 77.8168H80.1922V64.9189C80.1922 64.9189 88.8617 77.8168 85.9719 82.1161C83.0821 86.4154 72.9677 83.5492 75.8575 77.8168Z"
    fill="black" />
  <path d="M87.417 100.747H70.0781V106.479H87.417V100.747Z" fill="black" />
  <path d="M70.0781 100.747H52.7393V106.479H70.0781V100.747Z" fill="white" />
  <path d="M52.7391 100.747H46.9595V106.479H52.7391V100.747Z" fill="#FF7A00" />
  <path d="M85.2496 122.243H66.4658V140.873H85.2496V122.243Z" fill="#5A7676" />
  <path
    d="M102.011 148.898L97.6758 140.3H78.892H74.5573H55.7735L51.4388 148.898C23.5521 144.886 16.1831 166.955 14.4492 180.856H139C137.122 166.955 129.897 145.029 102.011 148.898Z"
    fill="#FFA776" />
  <path d="M75.713 163.803L70.8003 151.909L65.7432 140.157H75.8575H85.9719L80.9147 151.909L75.713 163.803Z"
    fill="#414141" />
  <path
    d="M48.2599 84.5524H40.8909C41.6133 83.5492 42.1913 82.2594 42.1913 80.9696C42.1913 80.5397 42.1913 80.1098 42.0468 79.6798C44.9366 79.1066 47.104 76.6704 47.104 73.8042C47.104 70.508 44.3586 67.7852 41.0353 67.7852H6.06861C2.74532 67.7852 0 70.508 0 73.8042C0 77.1003 2.74532 79.8232 6.06861 79.8232H14.738C14.5936 80.2531 14.5936 80.683 14.5936 80.9696C14.5936 82.2594 15.027 83.5492 15.894 84.5524H13.4376C9.96985 84.5524 7.22453 87.2753 7.22453 90.5714C7.22453 93.8675 9.96985 96.5904 13.2931 96.5904H39.0125C39.0125 96.7337 39.0125 96.877 39.0125 97.0203V98.5967C39.0125 99.7432 39.8794 100.603 41.0353 100.603C42.1913 100.603 43.0582 99.7432 43.0582 98.5967V97.0203C43.0582 96.877 43.0582 96.7337 43.0582 96.5904H48.4044C51.7277 96.5904 54.473 93.8675 54.473 90.5714C54.473 87.2753 51.5832 84.5524 48.2599 84.5524Z"
    fill="#E1E1E1" />
</svg>