<svg width="143" height="166" viewBox="0 0 143 166" fill="none" xmlns="http://www.w3.org/2000/svg">
<g clip-path="url(#clip0)">
<path d="M4.47852 40.726C4.47852 26.7895 15.7517 15.4854 29.6502 15.4854C43.5487 15.4854 54.8219 26.7895 54.8219 40.726C54.8219 41.3454 54.8219 41.9648 54.6675 42.7391V66.1215H28.7237V65.9667C15.2885 65.5021 4.47852 54.5077 4.47852 40.726Z" fill="#FF7A00"/>
<path d="M28.8779 47.2299C32.9717 47.2299 36.2904 43.9021 36.2904 39.7971C36.2904 35.6921 32.9717 32.3643 28.8779 32.3643C24.784 32.3643 21.4653 35.6921 21.4653 39.7971C21.4653 43.9021 24.784 47.2299 28.8779 47.2299Z" fill="#FF9838"/>
<path d="M120.299 32.9832C120.299 14.8657 105.628 0 87.4059 0C69.1834 0 54.3584 14.8657 54.3584 32.9832C54.3584 33.9123 54.3584 34.6866 54.5128 35.6157V66.2761H88.6413V66.1213C106.246 65.347 120.299 50.791 120.299 32.9832Z" fill="#FF9838"/>
<path d="M86.4796 52.0294C97.9935 52.0294 107.327 42.67 107.327 31.1246C107.327 19.5791 97.9935 10.2197 86.4796 10.2197C74.9657 10.2197 65.6318 19.5791 65.6318 31.1246C65.6318 42.67 74.9657 52.0294 86.4796 52.0294Z" fill="#FF7A00"/>
<path d="M86.4796 43.9767C93.5585 43.9767 99.2971 38.2224 99.2971 31.1241C99.2971 24.0258 93.5585 18.2715 86.4796 18.2715C79.4007 18.2715 73.6621 24.0258 73.6621 31.1241C73.6621 38.2224 79.4007 43.9767 86.4796 43.9767Z" fill="#FFA776"/>
<path d="M143 69.6826H134.506V112.267H143V69.6826Z" fill="#FF9838"/>
<path d="M143 105.764H134.506V112.267H143V105.764Z" fill="#FF7A00"/>
<path d="M0 75.877V87.0262V98.0206L10.8099 92.6008V81.2967L0 75.877Z" fill="#FF9838"/>
<path d="M117.365 80.3669L106.555 87.1804V77.4248H84.3176V81.7606H79.5304V71.3856V65.9658H28.5692V72.7793H25.0174V82.2251H10.8101V91.2065H25.0174V116.292H28.5692V117.067H46.7917V122.331H74.1254V117.067H79.5304V115.983V105.762H84.3176V105.453H106.555V94.7681L117.365 101.581L134.507 112.266V91.0516V69.6822L117.365 80.3669Z" fill="#FF7A00"/>
<path d="M97.7527 71.3857H79.5303V81.7607H84.3175V105.763H79.5303V115.983H97.7527V71.3857Z" fill="#FF9838"/>
<path d="M56.2115 133.327V121.713H51.5787L37.6802 166H46.0193L56.2115 133.327Z" fill="#FF7A00"/>
<path d="M74.743 166H83.0821L69.1836 121.713H63.9331V131.004L74.743 166Z" fill="#FF7A00"/>
<path d="M56.2114 166H63.9328V131.004V121.713H60.9987H59.7633H56.2114V133.327V166Z" fill="#FF9838"/>
<path d="M35.3641 112.112C33.2021 112.112 31.5034 110.408 31.5034 108.24C31.5034 106.072 33.2021 104.369 35.3641 104.369C37.5261 104.369 39.2248 106.072 39.2248 108.24C39.2248 110.408 37.5261 112.112 35.3641 112.112Z" fill="#FF9838"/>
</g>
<defs>
<clipPath id="clip0">
<rect width="143" height="166" fill="white"/>
</clipPath>
</defs>
</svg>
