<svg width="124" height="154" viewBox="0 0 124 154" fill="none" xmlns="http://www.w3.org/2000/svg">
<g clip-path="url(#clip0)">
<path d="M50.1071 0C48.1574 2.14975 12.4782 43.9721 50.1071 52.3756C88.321 43.9721 52.0568 2.14975 50.1071 0ZM50.1071 15.83C51.082 17.0025 71.3587 40.2589 50.1071 44.9492C29.2455 40.2589 49.1323 17.0025 50.1071 15.83Z" fill="#FF7A00"/>
<path d="M50.107 44.9484C71.3586 40.258 51.2769 17.0017 50.107 15.8291C49.1322 17.0017 29.2454 40.258 50.107 44.9484Z" fill="white"/>
<path d="M52.6413 40.6504H47.1821V57.6529H52.6413V40.6504Z" fill="#FF9838"/>
<path d="M62.1948 57.457H58.4904H56.3457H33.9243V125.858H58.4904V99.8657H62.1948V57.457Z" fill="#FFA776"/>
<path d="M49.3268 57.457H47.3771H46.2073H33.9243V125.858H47.3771V99.8657H49.3268V57.457Z" fill="white"/>
<path d="M47.5723 125.858H0V137.584H47.5723V125.858Z" fill="#FFA776"/>
<path d="M105.088 105.338C94.7547 105.338 86.1761 113.741 86.1761 124.295C86.1761 124.881 86.1761 125.467 86.1761 125.858H46.9874V137.193H6.82387L6.62891 137.389L26.5157 154.196H66.0943L85.5912 137.584H91.6352C94.9497 141.102 99.8239 143.056 104.893 143.056C115.226 143.056 123.805 134.653 123.805 124.099C123.805 113.546 115.616 105.338 105.088 105.338ZM105.088 138.17C99.6289 138.17 94.9497 135.043 92.61 130.353C91.8302 128.985 91.4402 127.422 91.2453 125.858C91.2453 125.272 91.0503 124.686 91.0503 124.295C91.0503 116.477 97.2893 110.224 105.088 110.224C112.887 110.224 119.126 116.477 119.126 124.295C119.126 131.917 112.887 138.17 105.088 138.17Z" fill="#FF9838"/>
</g>
<defs>
<clipPath id="clip0">
<rect width="124" height="154" fill="white"/>
</clipPath>
</defs>
</svg>
