<svg width="166" height="77" viewBox="0 0 166 77" fill="none" xmlns="http://www.w3.org/2000/svg">
  <path
    d="M83.0001 47.8076C78.3792 47.8076 73.9359 47.9847 69.6704 48.1617C103.972 50.4636 131.52 60.9104 139.341 74.3672H166C157.113 59.1397 123.345 47.8076 83.0001 47.8076Z"
    fill="#FF7A00" />
  <path
    d="M69.6701 48.1611C35.3682 50.463 7.82011 60.9098 0 74.3666H139.34C131.52 60.9098 103.972 50.463 69.6701 48.1611Z"
    fill="#FFA776" />
  <path
    d="M83.0003 0C69.6705 0 58.4736 9.73853 55.4521 23.0183V46.0367H110.548V23.0183C107.527 9.73853 96.33 0 83.0003 0Z"
    fill="#FFA776" />
  <path
    d="M83.0006 14.165C75.7137 14.165 69.6709 20.8935 68.249 30.1008V46.0366H97.7522V30.1008C96.3303 20.8935 90.2875 14.165 83.0006 14.165Z"
    fill="#FF7A00" />
  <path
    d="M83.0003 38.9542C86.9266 38.9542 90.1095 35.7832 90.1095 31.8716C90.1095 27.96 86.9266 24.7891 83.0003 24.7891C79.074 24.7891 75.8911 27.96 75.8911 31.8716C75.8911 35.7832 79.074 38.9542 83.0003 38.9542Z"
    fill="white" />
  <path
    d="M83.0009 35.4126C84.964 35.4126 86.5555 33.8272 86.5555 31.8714C86.5555 29.9156 84.964 28.3301 83.0009 28.3301C81.0377 28.3301 79.4463 29.9156 79.4463 31.8714C79.4463 33.8272 81.0377 35.4126 83.0009 35.4126Z"
    fill="black" />
</svg>