<svg width="431" height="351" viewBox="0 0 431 351" fill="none" xmlns="http://www.w3.org/2000/svg">
<path opacity="0.5" d="M214.5 334C321.919 334 409 330.418 409 326C409 321.582 321.919 318 214.5 318C107.081 318 20 321.582 20 326C20 330.418 107.081 334 214.5 334Z" fill="#3A3A3A"/>
<path d="M153.113 106.625C143.533 113.597 143 124.32 143 136.116L143.01 315.072C143.01 319.667 146.508 323.52 151.1 323.97C162.977 325.132 187.895 327 225.579 327C258.449 327 286.829 325.889 300.115 324.282C304.627 323.737 308 319.933 308 315.404V136.116C308 124.32 307.467 113.597 297.887 106.625C292.018 102.354 290.582 98.5012 290.345 96.1544C294.226 95.7244 297.505 95.1862 300.186 94.5178C302.269 93.9993 303.732 92.1342 303.732 89.9963V86.1579C303.732 84.0814 302.308 82.2827 300.285 81.7912C300.063 81.7371 299.829 81.6855 299.599 81.6315C299.794 81.5848 299.996 81.5405 300.186 81.4939C302.269 80.9754 303.732 79.1102 303.732 76.9723V73.1364C303.732 71.06 302.308 69.2612 300.285 68.7697C287.572 65.6784 260.102 64 225.692 64H225.69H225.688C191.28 64 163.811 65.6808 151.095 68.7697C149.069 69.2612 147.648 71.06 147.648 73.1364V76.9723C147.648 79.1102 149.111 80.9729 151.194 81.4939C151.383 81.5405 151.586 81.5872 151.781 81.6315C151.551 81.6831 151.314 81.7371 151.095 81.7912C149.069 82.2827 147.648 84.0814 147.648 86.1579V89.9963C147.648 92.1342 149.111 93.9968 151.194 94.5178C153.787 95.1641 156.942 95.6875 160.655 96.1101C160.438 98.452 159.019 102.327 153.113 106.625Z" fill="#EADFD1"/>
<path d="M110.67 92.3163L97.1889 76.4061C96.011 75.0167 94.2281 74.274 92.4109 74.4241C90.4854 74.5839 88.8255 75.2577 88.8255 75.2577L86.0615 73.8363L88.5206 71.7461C88.5206 71.7461 97.2159 62.2639 100.602 69.9805C101.593 72.2404 103.034 73.7183 103.447 74.4683L112.76 86.2227L110.67 92.3163Z" fill="#C77848"/>
<path d="M100.599 69.9782C100.599 69.9782 100.127 65.1706 96.9157 61.6738L78.3447 77.4538C77.9414 77.798 77.8209 78.3685 78.0521 78.8456C78.2832 79.3227 78.807 79.5833 79.3283 79.4776C80.2456 79.2907 81.3227 78.7079 82.4342 77.3284C82.776 76.9029 83.2506 76.6005 83.7817 76.4726L88.8229 75.2529L88.572 73.5487L100.599 69.9782Z" fill="white"/>
<path d="M144 78.8039L139.197 114.395C138.849 116.964 137.018 119.076 134.541 119.766C132.065 120.456 129.424 119.591 127.817 117.563L97 78.6479L104.533 72C109.626 77.4806 114.881 82.5373 119.689 87.4818C124.882 92.8235 129.552 98.0336 132.937 103.5L141.567 84.2431L144 78.8039Z" fill="#1D1D1D"/>
<path opacity="0.5" d="M142 84L140.897 101.541L134.268 106.649L132.375 112L131.666 106.162C131.666 106.162 126.34 95.7978 120 87.3184C125.222 92.7915 129.919 98.1298 133.323 103.73L142 84Z" fill="#1C1C1C"/>
<path d="M127.017 153.85L120.225 173.899C119.633 175.65 119.921 177.59 121 179.093C122.146 180.684 123.599 181.775 123.599 181.775L123.808 184.923L120.705 183.876C120.705 183.876 107.908 181.269 112.853 174.288C114.302 172.244 114.833 170.218 115.27 169.465L120.629 155.217L127.017 153.85Z" fill="#C77848"/>
<path d="M112.848 174.292C112.848 174.292 108.911 177.216 107.549 181.839L130.989 189.745C131.498 189.918 132.061 189.723 132.354 189.271C132.646 188.821 132.599 188.228 132.238 187.83C131.596 187.129 130.526 186.499 128.744 186.253C128.193 186.177 127.684 185.921 127.295 185.528L123.597 181.78L122.247 182.889L112.848 174.292Z" fill="white"/>
<path d="M225.5 75C264.436 75 296 73.2091 296 71C296 68.7909 264.436 67 225.5 67C186.564 67 155 68.7909 155 71C155 73.2091 186.564 75 225.5 75Z" fill="#DECBB9"/>
<path opacity="0.5" d="M225 310C264.764 310 297 307.761 297 305C297 302.239 264.764 300 225 300C185.235 300 153 302.239 153 305C153 307.761 185.235 310 225 310Z" fill="#C6A383"/>
<path d="M181 50.0512L176.269 56.901L167.325 69.8497L149.848 113.249C149.498 114.123 149.128 114.985 148.744 115.839L123.368 172L114 168.404C115.62 162.874 117.368 157.171 119.283 151.392C123.76 137.862 129.154 123.892 135.968 110.626L145.879 60.8956C146.36 58.4737 147.237 56.1847 148.507 54.0656C161.738 31.9929 180.63 49.7017 180.998 50.0463L181 50.0512Z" fill="#1D1D1D"/>
<path opacity="0.5" d="M181 50.0233L176.612 56.6177L176.322 56.8483L167.557 63.8106C167.557 63.8106 169.728 53.9912 165.216 51.6002C159.446 48.5469 153.108 52.7945 150.735 64.7425C148.362 76.6905 140.053 110.379 140.053 110.379L145.275 112.051L139.339 113.008C139.339 113.008 132.463 123.945 120 151C124.425 137.519 129.756 123.6 136.491 110.381L146.286 60.8309C146.761 58.4178 147.628 56.1371 148.883 54.0256C161.96 32.0326 180.632 49.6775 180.995 50.0208L181 50.0233Z" fill="#1C1C1C"/>
<path d="M221.668 171.366C221.296 169.603 219.627 165.041 218.884 163.937C218.702 163.667 218.449 162.693 218.203 161.572L214.667 131.568L206.419 133.263L215.05 163.556C215.006 164.156 214.898 164.916 214.905 164.953C214.999 165.322 214.561 166.647 214.059 167.687C213.152 169.571 213.27 171.027 212.975 171.71C212.677 172.392 212.031 174.418 212.146 174.644C212.259 174.87 212.301 174.993 213.164 174.696C214.025 174.396 214.709 173.479 214.972 172.529C215.097 172.077 215.218 171.661 215.402 171.317C215.554 171.034 215.749 170.798 216.029 170.633C216.125 170.574 216.233 170.525 216.351 170.483C217.229 170.181 218.176 170.719 218.176 170.719C218.176 170.719 218.296 170.852 218.464 171.061C218.39 171.265 218.309 171.489 218.232 171.688C218.164 171.873 218.097 172.04 218.048 172.153C217.844 172.613 217.682 173.019 217.409 173.348C217.136 173.678 216.56 173.948 216.573 174.558C216.577 174.747 216.632 174.89 216.713 174.998C216.814 175.133 216.959 175.21 217.101 175.247H217.104C217.091 175.264 217.074 175.283 217.062 175.301C216.914 175.512 216.828 175.699 216.813 175.901C216.799 176.088 216.843 176.255 216.929 176.402C216.983 176.498 217.054 176.584 217.133 176.663C217.136 176.665 217.136 176.665 217.138 176.668C216.568 177.617 217.327 178.232 217.741 178.001C218.07 177.819 219.204 176.439 219.799 175.652C219.924 175.49 220.023 175.35 220.089 175.254C220.141 175.94 220.239 177.042 220.414 178.146C220.699 179.931 222.029 179.498 222.088 179.112C222.147 178.724 222.132 175.161 222.172 174.374C222.214 173.587 221.941 172.652 221.668 171.366Z" fill="#C77848"/>
<path d="M219.265 89.8993C219.553 87.996 219.017 86.0656 217.795 84.5853C216.572 83.1049 214.775 82.2122 212.854 82.136C212.854 82.136 212.65 82.1262 212.648 82.1262C200.672 81.568 202.052 91.6551 202.62 100.23L203.807 118.218L204.152 123.431C204.257 125.037 204.53 126.628 204.971 128.18L206.419 133.263L214.667 131.568L213.917 125.209L219.265 89.8993Z" fill="#FF9838"/>
<path d="M204.798 130.932L206.354 135.245L215.46 132.85L215.099 128.896L204.798 130.932Z" fill="white"/>
<path d="M213.497 103.153C211.911 104.796 209.562 105.381 207.976 107.073C206.557 108.583 205.623 110.563 205.001 112.564C204.474 114.261 204.061 116.221 203.808 118.218L202.62 100.23L213.57 96.2705C214.32 98.6632 215.484 101.083 213.497 103.153Z" fill="#FF9838"/>
<path d="M233.715 119.075C233.882 118.407 232.449 117.472 230.514 116.987C228.579 116.502 226.874 116.65 226.707 117.318C226.539 117.986 227.972 118.921 229.907 119.406C231.843 119.891 233.547 119.743 233.715 119.075Z" fill="white"/>
<path d="M225.954 90.998C226.581 95.6998 229.406 97.2712 229.406 97.2712L238.98 102.123L236.452 107.476L228.224 108.3C228.224 108.3 232.898 119.346 224.144 109.38C223.345 108.47 222.602 107.639 221.914 106.884C219.233 103.925 217.404 102.123 216.253 101.058C215.124 100.018 214.649 99.6909 214.649 99.6909L225.954 90.998Z" fill="#C77848"/>
<path d="M226.156 90.5015L228.21 93.3516L216.46 102.278L210.526 100.006L226.156 90.5015Z" fill="white"/>
<path d="M225.891 104.836C225.905 104.841 226.107 104.907 226.437 105.089C226.655 105.215 226.931 105.394 227.241 105.637C226.326 104.58 224.25 102.556 221.796 102.655L220.945 98.8726L217.062 101.823C217.999 102.728 219.239 103.983 220.83 105.699C222.254 104.737 223.958 104.238 225.891 104.836Z" fill="#C77848"/>
<path d="M217.411 112.587L219.671 113.637C221.176 114.016 222.563 114.48 223.748 114.957L224.262 115.646L225.932 116.236C225.592 117.121 225.489 118.516 227.137 117.999C228.172 117.675 229.891 117.913 230.611 118.036C231.039 118.245 231.455 118.489 231.841 118.759C233.122 119.462 234.337 119.541 235.348 119.362C235.424 119.354 235.505 119.339 235.576 119.322C236.218 119.187 236.764 118.953 237.177 118.735C237.197 118.725 237.219 118.707 237.246 118.7C237.721 118.442 237.993 118.211 237.993 118.211L238.948 113.959L240.834 104.878L238.653 104.118L235.143 102.893L232.207 101.868L230.97 106.242L230.899 106.483L230.624 106.319L227.901 104.693L226.436 105.096L221.095 106.569L220.886 107.005L220.667 107.469L217.721 110.337C216.572 111.389 216.966 112.122 217.239 112.427C217.33 112.535 217.411 112.587 217.411 112.587Z" fill="#C77848"/>
<path d="M237.273 113.16C237.678 113.359 237.978 113.723 238.094 114.16C238.21 114.598 238.131 115.063 237.878 115.437C236.439 117.561 235.047 121.039 239.338 123.062C239.338 123.062 243.848 124.781 244.493 120.148C244.493 120.148 244.271 117.92 247.035 116.679C249.799 115.437 251.159 112.656 250.736 110.361C250.389 108.475 249.58 107.686 249.305 107.467C249.086 107.292 248.889 107.081 248.73 106.847C248.39 106.348 248.08 105.568 248.614 104.74C249.428 103.481 249.558 99.7626 245.334 98.11C244.532 97.7953 243.661 97.6699 242.803 97.7486L242.567 97.7707C241.524 97.8666 240.509 98.0977 239.528 98.4617C238.965 98.6707 238.084 98.6953 236.921 97.8076C233.427 95.137 230.026 97.628 230.026 97.628L230.397 99.2584C230.783 100.955 232.345 102.106 234.081 101.981C235.008 101.914 235.928 102.236 236.419 103.498C236.626 104.032 236.599 104.629 236.338 105.138C236.112 105.583 235.706 106.026 234.981 106.08C234.378 106.124 233.771 106.247 233.198 106.439L229.502 107.681L233.21 109.628C234.14 110.118 234.929 110.809 235.539 111.665C235.915 112.186 236.471 112.769 237.273 113.16Z" fill="#1D1D1D"/>
<path d="M224.263 115.645C223.611 114.905 224.019 114.293 224.147 114.086C225.34 112.188 225.315 110.479 225.094 109.37C225.013 108.962 225.123 108.539 225.396 108.226C225.669 107.912 226.073 107.742 226.488 107.767C227.017 107.799 227.543 107.929 228.037 108.155L232.205 109.289L236.258 110.393L234.17 106.33C232.749 105.671 229.835 108.391 228.458 106.805C228.45 106.803 228.453 106.795 228.446 106.793C227.644 105.866 226.909 105.359 226.436 105.089C226.107 104.907 225.905 104.84 225.891 104.835C223.414 104.068 221.309 105.103 219.691 106.603C218.926 107.304 218.285 108.103 217.746 108.873C217.449 108.814 217.121 108.812 216.743 108.91C214.692 109.441 214.694 111.836 214.694 111.836C214.903 117.364 224.263 115.645 224.263 115.645Z" fill="#1D1D1D"/>
<path d="M231.197 114.903C229.262 114.418 227.557 114.566 227.39 115.232C227.223 115.899 228.657 116.833 230.592 117.32C232.527 117.805 234.231 117.657 234.399 116.991C234.566 116.322 233.132 115.387 231.197 114.903Z" fill="white"/>
<path d="M232.559 106.926C232.702 106.741 232.946 106.651 233.187 106.712C233.506 106.796 233.696 107.125 233.612 107.442L230.644 118.673C230.56 118.99 230.233 119.182 229.911 119.098C229.591 119.015 229.402 118.685 229.486 118.368L232.454 107.137C232.476 107.059 232.513 106.987 232.559 106.926Z" fill="white"/>
<path d="M227.555 85.731C227.535 86.1342 227.498 86.5277 227.434 86.9187C226.874 90.4499 224.616 93.4746 221.823 95.6534C219.767 97.2542 217.332 98.978 214.721 99.8904C213.275 100.394 211.78 100.653 210.265 100.503C204.86 99.9863 200.308 96.487 196.325 93.0763C195.068 92.0065 194.121 90.7721 193.288 89.4909C191.089 86.1367 189.675 82.4653 185.78 80.5398C184.496 79.9079 182.684 79.1406 180.586 78.307C175.843 76.4184 170.484 74.8471 165.706 72.7863C163.368 71.7855 161.59 70.6199 161.366 69.3117C161.002 67.0272 165.827 65.0083 167.388 63.8673C167.418 63.8476 167.44 63.8279 167.465 63.8107C170.868 61.1844 172.658 58.0786 174.5 54.8449C175.233 53.5465 175.976 52.2284 176.834 50.9104C176.92 50.7751 177.006 50.6423 177.097 50.5071C177.203 50.3497 177.308 50.1948 177.414 50.0423C177.572 49.8111 177.736 49.5824 177.904 49.3513C178.449 48.6086 179.332 48.2054 180.242 48.2791C181.157 48.3455 181.968 48.8841 182.389 49.7029C184.096 53.0178 187.103 54.2547 187.103 54.2547C193.438 57.9532 203.156 61.386 210.663 65.1607C220.775 70.2436 224.894 77.2938 224.894 77.2938C225.42 78.1422 225.92 79.0619 226.34 80.0259C227.137 81.8431 227.651 83.8129 227.555 85.731Z" fill="#FF9838"/>
<path d="M226.497 141.587C220.379 141.587 214.204 139.902 214.204 136.137C214.204 132.375 220.379 130.688 226.497 130.688C232.615 130.688 238.79 132.372 238.79 136.137C238.79 139.902 232.615 141.587 226.497 141.587Z" fill="#1D1D1D"/>
<path d="M238.79 140.47C238.79 144.427 232.615 146.197 226.497 146.197C220.379 146.197 214.204 144.427 214.204 140.47V136.14H238.792V140.47H238.79Z" fill="#1D1D1D"/>
<path d="M236.693 135.857C236.693 136.071 236.643 136.28 236.538 136.486C235.704 138.193 231.526 139.491 226.495 139.491C221.466 139.491 217.288 138.193 216.452 136.486C216.346 136.28 216.297 136.071 216.297 135.857C216.297 133.853 220.861 132.227 226.495 132.227C232.128 132.227 236.693 133.855 236.693 135.857Z" fill="#CDE0EB"/>
<path d="M236.538 136.486C235.704 138.193 231.526 139.491 226.495 139.491C221.466 139.491 217.288 138.193 216.452 136.486C217.286 134.78 221.464 133.486 226.495 133.486C231.526 133.486 235.704 134.78 236.538 136.486Z" fill="white"/>
<path d="M214.681 140.854H196.049C194.733 140.854 193.666 139.787 193.666 138.471C193.666 137.156 194.733 136.088 196.049 136.088H214.681V140.854Z" fill="#1D1D1D"/>
<path d="M227.555 85.7309C227.535 86.1342 227.499 86.5277 227.435 86.9187L194.175 87.9638L210.467 74.3897C210.467 74.3897 201.986 64.1107 193.059 65.7632C188.751 66.5624 184.951 64.9664 181.597 62.2934C176.591 61.0368 177.611 62.2024 173.652 63.3656C171.227 64.0787 168.884 64.0271 167.389 63.8697C167.418 63.85 167.44 63.8303 167.465 63.8131C170.868 61.1868 172.658 58.081 174.5 54.8473C175.233 53.5489 175.976 52.2308 176.834 50.9128C176.92 50.7775 177.006 50.6447 177.097 50.5095C177.203 50.3521 177.309 50.1972 177.414 50.0447C177.572 49.8136 177.736 49.5849 177.904 49.3537C178.45 48.6111 179.332 48.2078 180.242 48.2816C181.157 48.348 181.969 48.8865 182.389 49.7054C184.096 53.0202 187.103 54.2571 187.103 54.2571C193.438 57.9556 203.156 61.3885 210.664 65.1632C220.775 70.2461 224.894 77.2963 224.894 77.2963C225.421 78.1447 225.92 79.0644 226.34 80.0283C227.137 81.8431 227.651 83.8129 227.555 85.7309Z" fill="#FF9838"/>
<path d="M227.52 86.9311C227.323 90.9762 224.304 95.9313 213.594 100.186C208.902 102.049 204.036 100.075 199.386 102.659C194.829 105.185 190.838 105.785 188.293 105.841C187.353 105.866 186.616 105.812 186.112 105.755L179.182 107.806C180.643 109.412 181.818 111.018 183.158 112.493C181.611 113.801 179.612 115.803 177.606 118.697C174.121 115.808 170.998 112.914 168.018 109.832C166.542 108.308 165.785 106.23 166.124 104.14C166.459 102.045 167.796 100.249 169.709 99.3248L209.333 80.1759C209.333 80.1759 218.93 75.1865 224.441 79.0202C224.444 79.0202 227.751 82.4088 227.52 86.9311Z" fill="#FF9838"/>
<path opacity="0.5" d="M227.09 87.0786C227.515 88.2319 227.267 89.7073 226.195 91.3279C223.281 95.7272 218.357 98.2945 213.597 100.185C208.905 102.049 204.038 100.075 199.388 102.659C194.831 105.185 190.84 105.785 188.295 105.841C186.753 104.154 189.547 103.139 189.547 103.139C189.547 103.139 192.102 103.22 195.215 99.3863C198.331 95.5526 207.914 90.2828 207.914 90.2828C212.146 87.6589 217.332 84.5334 222.499 84.622C224.908 84.6588 226.546 85.6031 227.09 87.0786Z" fill="#FF9838"/>
<path d="M206.514 140.854C206.101 140.854 205.71 140.659 205.459 140.332C205.164 139.944 204.808 139.305 204.572 138.306C204.562 138.262 204.461 137.578 204.373 136.971C204.341 136.75 204.405 136.523 204.552 136.356C204.67 136.221 204.83 136.113 205.005 136.073L205.007 136.09H207.348C207.033 135.144 205.875 134.935 205.28 134.89L201.815 131.826L200.455 130.614C194.209 124.562 189.153 119.079 183.165 112.496C181.619 113.804 179.619 115.808 177.61 118.7C183.377 123.478 190.137 128.236 198.859 133.781C198.852 134.467 198.896 135.19 198.967 135.886C199.157 137.753 199.523 139.4 199.523 139.4C199.575 139.568 199.622 139.725 199.673 139.868C200.209 141.439 200.74 141.678 200.74 141.678C201.658 142.607 205.066 142.334 205.066 142.334C206.984 142.29 208.573 140.859 208.573 140.859H206.514V140.854Z" fill="#C77848"/>
<path d="M185.293 113.642C185.375 113.393 185.306 113.111 185.114 112.916L182.834 110.629C182.763 110.558 182.655 110.541 182.571 110.588C179.625 112.235 177.496 114.429 175.467 117.709C175.268 118.034 175.349 118.474 175.659 118.725L178.983 121.435C179.279 121.676 179.692 121.671 179.957 121.422C182.392 119.145 184.086 117.318 185.293 113.642Z" fill="white"/>
<path opacity="0.2" d="M294.878 111.259C287.675 105.992 285.755 100.8 285.413 97.3701L285.199 95.233C285.056 93.8026 286.09 92.5223 287.52 92.3647L289.653 92.1259C291.613 91.9068 293.402 91.6606 295.006 91.3873C295.612 91.2839 296.202 91.0746 296.736 90.7693C296.741 90.7668 296.746 90.7644 296.751 90.7619C297.982 90.0553 298.742 88.7406 298.742 87.3224V86.569C298.587 85.2247 297.738 84.5378 296.928 84.1882C296.281 83.91 295.567 83.8164 294.871 83.9272C283.245 85.759 264.329 86.1948 237.131 86.2686C236.735 86.2686 236.413 85.9486 236.413 85.5497C236.413 85.1533 236.732 84.8283 237.131 84.8283C264.922 84.7545 284.015 84.3039 295.442 82.3761L295.449 82.2481L295.905 82.2629C298.838 81.4159 298.553 78.3186 298.553 78.3186C298.553 72.9636 292.065 74.1011 292.065 74.1011L292.075 74.0962C291.632 74.1873 291.253 74.2661 290.975 74.303C287.372 74.793 282.233 75.2337 275.704 75.6104C262.34 76.3785 244.581 76.8045 225.694 76.8045C206.808 76.8045 189.049 76.381 175.685 75.6104C171.686 75.3789 168.213 75.1253 165.292 74.852L158.511 91.7221C159.417 91.8501 160.365 91.9732 161.364 92.0865L163.48 92.3278C164.9 92.4903 165.927 93.7582 165.794 95.1813L165.594 97.3011C165.27 100.748 163.365 105.968 156.122 111.261C148.583 116.771 148 125.376 148 136.933V299.011C148 306.724 154.273 313 161.984 313H289.016C296.727 313 303 306.724 303 299.011V136.933C303 125.374 302.417 116.769 294.878 111.259Z" fill="#E1DFDF"/>
<path d="M176.207 75.754C189.453 76.5556 207.055 77 225.776 77C225.851 77 225.924 77 226 77L225.776 74.9936C200.757 74.9936 178.805 74.1972 166.442 73L166 74.9705C168.876 75.2556 172.286 75.5177 176.207 75.754Z" fill="#ECE3D8"/>
<path opacity="0.5" d="M288.002 78.0844C288.056 76.6431 289.259 75.4654 290.823 75.3108C291.631 75.2313 292.533 75.1358 293.413 75.0267C294.336 74.9107 295.265 75.1767 295.957 75.7496C296.649 76.3225 297.03 77.1455 296.998 77.998V78.0231C296.946 79.3462 295.868 80.4397 294.437 80.6216C293.51 80.7398 292.432 80.8694 291.403 80.9808C290.52 81.0763 289.638 80.8126 288.986 80.2624C288.331 79.7122 287.972 78.9256 288.002 78.1117V78.0844Z" fill="white"/>
<path opacity="0.5" d="M296 205.259C296 207.325 294.433 209 292.5 209C290.567 209 289 207.325 289 205.259V135.741C289 133.675 290.567 132 292.5 132C294.433 132 296 133.675 296 135.741V205.259Z" fill="white"/>
<path opacity="0.5" d="M295.471 128.088C296.921 126.638 296.921 124.287 295.471 122.837C294.021 121.387 291.669 121.387 290.219 122.837C288.769 124.287 288.769 126.638 290.219 128.088C291.669 129.538 294.021 129.538 295.471 128.088Z" fill="white"/>
<path opacity="0.5" d="M251.464 91C250.655 91 250 90.4242 250 89.7144C250 89.0045 250.655 88.4287 251.464 88.4287C251.684 88.4287 273.639 88.4133 287.369 87.009C288.17 86.9255 288.898 87.431 288.99 88.1364C289.083 88.8419 288.51 89.4792 287.707 89.5605C273.809 90.9824 251.686 91 251.464 91Z" fill="white"/>
</svg>
