<svg width="32" height="32" viewBox="0 0 32 32" fill="none" xmlns="http://www.w3.org/2000/svg">
<path fill-rule="evenodd" clip-rule="evenodd" d="M16 1.21851C24.1637 1.21851 30.7816 7.83643 30.7816 16C30.7816 24.1637 24.1637 30.7816 16 30.7816C7.83643 30.7816 1.21851 24.1637 1.21851 16C1.21851 7.83643 7.83643 1.21851 16 1.21851ZM17.4803 8.60928C15.2745 8.60928 13.8327 9.89054 13.8327 12.21V14.2488H11.3808V16.9239H13.8327V23.3908H16.8504V16.9239H19.1005L19.5288 14.2488H16.8504V12.5128C16.8504 11.781 17.2245 11.0676 18.4241 11.0676H19.6418V8.79C19.6418 8.79 18.5368 8.60928 17.4803 8.60928Z" fill="white"/>
</svg>
