<svg width="32" height="32" viewBox="0 0 32 32" fill="none" xmlns="http://www.w3.org/2000/svg">
<path fill-rule="evenodd" clip-rule="evenodd" d="M16 1.21851C24.1637 1.21851 30.7816 7.83643 30.7816 16C30.7816 24.1637 24.1637 30.7816 16 30.7816C7.83643 30.7816 1.21851 24.1637 1.21851 16C1.21851 7.83643 7.83643 1.21851 16 1.21851ZM11.918 13.5222H8.85344V23.3908H11.918V13.5222ZM19.7192 13.2747C18.2282 13.2747 17.2288 14.093 16.8196 14.8683H16.7767V13.5222H13.8376V23.3908H16.8988V18.5043C16.8988 17.2175 17.143 15.9737 18.7363 15.9737C20.3065 15.9737 20.3296 17.4419 20.3296 18.5868V23.3908H23.3908V17.9698C23.3908 15.3171 22.8207 13.2747 19.7192 13.2747ZM10.3841 8.60961C9.40387 8.60961 8.60928 9.4042 8.60928 10.3844C8.60928 11.3643 9.40411 12.176 10.3841 12.176C11.3637 12.176 12.1588 11.3643 12.1588 10.3844C12.1588 9.4042 11.3642 8.60961 10.3841 8.60961Z" fill="white"/>
</svg>
