<svg width="100" height="100" viewBox="0 0 100 100" fill="none" xmlns="http://www.w3.org/2000/svg">
<g clip-path="url(#clip0)">
<path d="M72.7211 100.001C72.0211 100.001 71.3044 99.9134 70.5961 99.7259L6.16689 82.4718C1.75023 81.2551 -0.883107 76.6801 0.275226 72.2634L8.40439 41.9634C8.70439 40.8509 9.84606 40.2051 10.9544 40.4884C12.0669 40.7842 12.7252 41.9301 12.4294 43.0384L4.30439 73.3301C3.72523 75.5384 5.05023 77.8384 7.26273 78.4509L71.6669 95.6968C73.8794 96.2801 76.1627 94.9634 76.7377 92.7634L79.9919 80.7051C80.2919 79.5926 81.4336 78.9301 82.5461 79.2343C83.6586 79.5343 84.3127 80.6801 84.0169 81.7884L80.7669 93.8301C79.7877 97.5384 76.4127 100.001 72.7211 100.001Z" fill="#111111" fill-opacity="0.1"/>
<path d="M91.6668 75.0006H25.0001C20.4042 75.0006 16.6667 71.2631 16.6667 66.6673V16.6673C16.6667 12.0715 20.4042 8.33398 25.0001 8.33398H91.6668C96.2626 8.33398 100 12.0715 100 16.6673V66.6673C100 71.2631 96.2626 75.0006 91.6668 75.0006ZM25.0001 12.5007C22.7042 12.5007 20.8334 14.3715 20.8334 16.6673V66.6673C20.8334 68.9632 22.7042 70.834 25.0001 70.834H91.6668C93.9626 70.834 95.8334 68.9632 95.8334 66.6673V16.6673C95.8334 14.3715 93.9626 12.5007 91.6668 12.5007H25.0001Z" fill="#111111" fill-opacity="0.1"/>
<path d="M37.5001 37.5007C32.9042 37.5007 29.1667 33.7632 29.1667 29.1673C29.1667 24.5715 32.9042 20.834 37.5001 20.834C42.0959 20.834 45.8334 24.5715 45.8334 29.1673C45.8334 33.7632 42.0959 37.5007 37.5001 37.5007ZM37.5001 25.0007C35.2042 25.0007 33.3334 26.8715 33.3334 29.1673C33.3334 31.4632 35.2042 33.334 37.5001 33.334C39.7959 33.334 41.6667 31.4632 41.6667 29.1673C41.6667 26.8715 39.7959 25.0007 37.5001 25.0007Z" fill="#111111" fill-opacity="0.1"/>
<path d="M19.0417 70.5423C18.5083 70.5423 17.975 70.3381 17.5667 69.934C16.7542 69.1215 16.7542 67.8006 17.5667 66.9881L37.2458 47.309C39.6041 44.9506 43.725 44.9506 46.0833 47.309L51.9416 53.1673L68.1583 33.709C69.3375 32.2965 71.0708 31.4757 72.9166 31.459H72.9625C74.7875 31.459 76.5166 32.2506 77.7083 33.6381L99.5 59.0631C100.25 59.934 100.15 61.2506 99.275 62.0006C98.4041 62.7506 97.0916 62.6548 96.3375 61.7756L74.5458 36.3506C74.1416 35.884 73.5833 35.6257 72.9625 35.6257C72.5291 35.5882 71.7666 35.8881 71.3625 36.3756L53.6833 57.5881C53.3083 58.0381 52.7625 58.309 52.175 58.334C51.5833 58.3756 51.0208 58.1423 50.6083 57.7256L43.1375 50.2548C42.35 49.4715 40.9791 49.4715 40.1916 50.2548L20.5125 69.934C20.1083 70.3381 19.575 70.5423 19.0417 70.5423Z" fill="#111111" fill-opacity="0.1"/>
</g>
<defs>
<clipPath id="clip0">
<rect width="100" height="100" fill="white"/>
</clipPath>
</defs>
</svg>
