<svg width="32" height="32" viewBox="0 0 32 32" fill="none" xmlns="http://www.w3.org/2000/svg">
<circle cx="16" cy="16" r="16" fill="white"/>
<path fill-rule="evenodd" clip-rule="evenodd" d="M24.7892 10.0718C25.0996 10.3822 25.3233 10.7686 25.438 11.1923C26.0982 13.85 25.9457 18.0474 25.4508 20.8077C25.3361 21.2314 25.1125 21.6178 24.8021 21.9282C24.4916 22.2386 24.1053 22.4623 23.6816 22.5769C22.1303 23 15.8867 23 15.8867 23C15.8867 23 9.64312 23 8.09184 22.5769C7.66809 22.4623 7.28177 22.2386 6.97136 21.9282C6.66095 21.6178 6.43727 21.2314 6.32261 20.8077C5.6585 18.1615 5.84056 13.9615 6.30979 11.2051C6.42445 10.7814 6.64813 10.3951 6.95854 10.0846C7.26895 9.77424 7.65527 9.55056 8.07902 9.4359C9.6303 9.01282 15.8739 9 15.8739 9C15.8739 9 22.1175 9 23.6688 9.42308C24.0925 9.53774 24.4788 9.76142 24.7892 10.0718ZM19.0662 16L13.8867 19V13L19.0662 16Z" fill="#14171D"/>
</svg>
