<svg width="386" height="390" viewBox="0 0 386 390" fill="none" xmlns="http://www.w3.org/2000/svg">
<rect x="0.991455" width="385" height="389" rx="10" fill="white"/>
<path d="M246.942 97L206.942 46L27 188.164L66.9415 238L141.942 178.5L139.442 152L144.942 148L169.942 156.5L246.942 97Z" fill="#E4E2E3"/>
<path d="M93 336L88 389H170L158.861 342.689L93 336Z" fill="#FF7A00" stroke="#FF7A00"/>
<path d="M114 232L104.5 337L148 341.5L132.5 231.5C125.5 234.5 119.167 233.667 114 232Z" fill="#936760"/>
<path d="M112 231.463L113.024 226C113.024 226 118.792 228.579 122.756 228.98C126.755 229.384 132 227 132 227L132.5 228.98L133 230.966C131.976 231.794 128.698 233.549 123.78 233.946C118.863 234.343 113.878 232.456 112 231.463Z" fill="#3A302D"/>
<path d="M48.1895 189.036L112.672 137.014L127.746 157.165L129.561 172.395L72.8079 219.441L48.1895 189.036Z" fill="#60C1DC"/>
<path d="M72.8079 219.441L112.775 137.097L128.205 157.392L129.501 172.544L72.8079 219.441Z" fill="#5AB5D0"/>
<path d="M205.5 65L141 117L157.5 136L172 141L230 95.5L205.5 65Z" fill="#FB4032"/>
<path d="M205.579 65L172 141L230 95.702L205.579 65Z" fill="#DC362A"/>
<path d="M141 201L131.5 227C125.9 230.2 117.833 227.667 114.5 226V224L108 214.5L104 192.5L112.5 176L136 184L141 201Z" fill="#936760" stroke="#936760"/>
<path d="M260.032 275.24C258.336 275.24 256.8 274.872 255.424 274.136C254.064 273.384 252.992 272.352 252.208 271.04C251.44 269.728 251.056 268.248 251.056 266.6C251.056 264.952 251.448 263.472 252.232 262.16C253.016 260.848 254.088 259.824 255.448 259.088C256.824 258.336 258.36 257.96 260.056 257.96C261.432 257.96 262.688 258.2 263.824 258.68C264.96 259.16 265.92 259.856 266.704 260.768L264.688 262.664C263.472 261.352 261.976 260.696 260.2 260.696C259.048 260.696 258.016 260.952 257.104 261.464C256.192 261.96 255.48 262.656 254.968 263.552C254.456 264.448 254.2 265.464 254.2 266.6C254.2 267.736 254.456 268.752 254.968 269.648C255.48 270.544 256.192 271.248 257.104 271.76C258.016 272.256 259.048 272.504 260.2 272.504C261.976 272.504 263.472 271.84 264.688 270.512L266.704 272.432C265.92 273.344 264.952 274.04 263.8 274.52C262.664 275 261.408 275.24 260.032 275.24ZM269.874 258.2H272.994V275H269.874V258.2ZM292.646 258.2V275H290.078L280.814 263.624V275H277.718V258.2H280.286L289.55 269.576V258.2H292.646ZM309.927 272.384V275H297.327V258.2H309.591V260.816H300.447V265.184H308.559V267.752H300.447V272.384H309.927ZM324.577 275L321.145 270.08C321.001 270.096 320.785 270.104 320.497 270.104H316.705V275H313.585V258.2H320.497C321.953 258.2 323.217 258.44 324.289 258.92C325.377 259.4 326.209 260.088 326.785 260.984C327.361 261.88 327.649 262.944 327.649 264.176C327.649 265.44 327.337 266.528 326.713 267.44C326.105 268.352 325.225 269.032 324.073 269.48L327.937 275H324.577ZM324.505 264.176C324.505 263.104 324.153 262.28 323.449 261.704C322.745 261.128 321.713 260.84 320.353 260.84H316.705V267.536H320.353C321.713 267.536 322.745 267.248 323.449 266.672C324.153 266.08 324.505 265.248 324.505 264.176Z" fill="#FF7E3D"/>
</svg>
