<svg width="385" height="389" viewBox="0 0 385 389" fill="none" xmlns="http://www.w3.org/2000/svg">
<rect width="385" height="389" rx="10" fill="white"/>
<g clip-path="url(#clip0)">
<path d="M159.066 211.681L172.138 183.083L143.572 173.387L126.795 175.684L118.393 211.681V227.192L147.435 231.068L159.066 211.681Z" fill="#E4A582"/>
<path d="M265.409 50.644C253.075 67.326 232.1 78.284 212.149 76.6407C206.381 76.1686 200.818 74.7569 195.163 73.7764C164.19 68.3973 139.265 71.7428 112.15 90.699C104.595 95.9828 100.043 102.415 100.347 116.364C108.876 103.886 124.088 97.0223 138.775 95.0204C153.462 93.0186 169.028 90.463 183.456 92.0744C197.884 93.6813 211.097 97.9982 226.192 95.3109C245.857 91.8066 267.884 84.6254 280.005 68.1204L265.409 50.644Z" fill="#333333"/>
<path d="M185.248 175.157C210.739 153.828 214.23 115.968 193.046 90.5939C171.862 65.2194 134.024 61.9393 108.534 83.2675C83.0434 104.596 79.5524 142.456 100.737 167.83C121.921 193.205 159.758 196.485 185.248 175.157Z" fill="#333333"/>
<path d="M177.6 166C198.009 148.924 200.803 118.612 183.843 98.2969C166.882 77.9816 136.589 75.3554 116.181 92.4312C95.7729 109.507 92.9781 139.818 109.939 160.134C126.899 180.449 157.192 183.075 177.6 166Z" fill="#424647"/>
<path d="M94.7515 63.0318C58.9487 92.9913 53.6391 145.684 82.8943 180.718C112.15 215.757 164.888 219.87 200.691 189.91C236.493 159.951 241.803 107.258 212.548 72.2239C183.293 37.1894 130.554 33.0723 94.7515 63.0318ZM133.225 53.5809C139.188 51.7425 145.422 50.9118 151.666 51.1251C159.624 51.3975 167.409 53.3585 174.492 56.8674C176.419 57.8206 177.117 60.1992 176.011 62.0422L151.97 102.038C150.959 103.722 148.442 103.523 147.73 101.702L130.844 58.4471C130.069 56.4498 131.162 54.2119 133.225 53.5809ZM157.955 127.762C158.164 125.942 159.81 124.626 161.632 124.826C163.451 125.025 164.756 126.664 164.548 128.484C164.339 130.304 162.693 131.621 160.871 131.421C159.052 131.221 157.746 129.583 157.955 127.762ZM145.88 112.933C146.057 111.108 147.68 109.764 149.503 109.932C151.326 110.1 152.659 111.716 152.482 113.541C152.305 115.366 150.682 116.709 148.859 116.541C147.032 116.373 145.699 114.757 145.88 112.933ZM155.887 120.382C154.763 118.943 155.026 116.854 156.472 115.724C157.919 114.594 160.004 114.844 161.129 116.283C162.253 117.722 161.991 119.81 160.544 120.94C159.098 122.07 157.012 121.821 155.887 120.382ZM141.382 118.884C139.972 120.064 137.882 119.882 136.712 118.48C135.542 117.077 135.732 114.984 137.143 113.804C138.553 112.624 140.643 112.805 141.813 114.208C142.983 115.611 142.788 117.703 141.382 118.884ZM159.03 134.83C160.199 136.233 160.009 138.325 158.599 139.506C157.189 140.686 155.098 140.504 153.929 139.102C152.759 137.699 152.949 135.606 154.359 134.426C155.769 133.246 157.86 133.428 159.03 134.83ZM143.259 139.764C143.436 137.94 145.059 136.596 146.882 136.764C148.705 136.932 150.038 138.548 149.861 140.373C149.684 142.198 148.061 143.541 146.238 143.373C144.411 143.205 143.078 141.589 143.259 139.764ZM139.265 137.586C137.818 138.716 135.732 138.466 134.608 137.027C133.483 135.588 133.746 133.5 135.193 132.37C136.639 131.24 138.725 131.489 139.85 132.928C140.974 134.367 140.716 136.455 139.265 137.586ZM137.782 125.547C137.573 127.368 135.927 128.684 134.105 128.484C132.286 128.285 130.98 126.646 131.189 124.826C131.398 123.005 133.044 121.689 134.866 121.889C136.689 122.088 137.995 123.727 137.782 125.547ZM84.2682 86.2867C87.7914 80.3493 92.2395 74.9066 97.4358 70.1994C104.051 64.1984 111.714 59.5365 119.894 56.5088C122.12 55.6872 124.356 56.8265 124.755 58.9918L133.415 106.042C133.778 108.021 131.606 109.837 129.756 109.101L85.7691 91.5841C83.7377 90.7761 83.0485 88.343 84.2682 86.2867ZM71.5495 138.648C69.958 130.749 70.0351 122.542 71.7899 114.585C73.1683 108.339 75.5578 102.365 78.8452 96.9133C79.9833 95.0294 82.4228 94.5029 84.1503 95.7693L121.69 123.314C123.268 124.471 122.823 127.018 120.942 127.599L76.17 141.444C74.1023 142.089 71.9803 140.799 71.5495 138.648ZM106.423 187.972C98.914 183.605 92.2123 177.718 86.7802 170.691C82.518 165.176 79.1173 159.066 76.7186 152.62C75.8888 150.391 77.0043 148.108 79.1445 147.658L125.616 137.858C127.571 137.445 129.384 139.601 128.668 141.489L111.66 186.347C110.871 188.412 108.463 189.161 106.423 187.972ZM158.739 201.186C150.868 202.984 142.661 203.12 134.68 201.572C128.414 200.355 122.411 198.126 116.911 194.981C115.011 193.891 114.448 191.467 115.691 189.706L142.67 151.453C143.803 149.842 146.356 150.223 146.968 152.089L161.474 196.492C162.136 198.54 160.88 200.696 158.739 201.186ZM211.292 166.978C206.903 174.522 200.994 181.277 193.953 186.765C188.425 191.077 182.304 194.522 175.852 196.973C173.621 197.822 171.345 196.724 170.9 194.59L161.238 148.194C160.83 146.242 162.993 144.413 164.879 145.112L209.682 161.757C211.745 162.525 212.484 164.926 211.292 166.978ZM222.356 110.191C223.992 116.423 224.623 122.924 224.201 129.415C223.666 137.685 221.444 145.747 217.703 153.051C216.688 155.039 214.284 155.725 212.48 154.54L173.29 128.825C171.639 127.744 171.925 125.13 173.766 124.422L217.567 107.631C219.59 106.859 221.789 108.035 222.356 110.191ZM214.262 100.486L167.146 109.287C165.165 109.66 163.364 107.49 164.117 105.638L181.996 61.5928C182.817 59.5683 185.26 58.8692 187.301 60.0858C193.209 63.5901 198.614 68.025 203.28 73.2044C209.224 79.8046 213.822 87.4533 216.783 95.6241C217.595 97.8438 216.434 100.082 214.262 100.486Z" fill="#B3BBC0"/>
<path d="M124.315 242.108C117.691 241.563 112.599 240.969 112.599 240.969L110.331 253.225C110.331 255.585 116.271 256.756 123.744 257.292C123.812 252.226 124.211 247.174 124.315 242.108Z" fill="#3D2A14"/>
<path d="M155 388.5C155.118 377.574 150.523 238.059 153.008 234.21C156.413 228.931 160.97 219.053 161.442 218.327L160.462 208.658L127.68 221.177C127.68 221.177 115.845 204.759 115.945 205.163L115.782 205.081L133.96 198.821L128.387 191.245L103.652 194.777L100.578 204.763L102.21 218.663C104.695 223.429 107.185 228.195 109.669 232.961C111.061 235.626 113.115 238.105 113.873 241.014C115.024 245.449 88.4745 366.231 85.5 389C85.5 389.014 155 388.5 155 388.5Z" fill="#EBAB88"/>
<path d="M112.517 240.46L110.25 252.717C110.25 259.072 153.326 256.802 153.326 256.802L153.511 240.964C148.252 244.646 112.517 240.46 112.517 240.46Z" fill="#573B1C"/>
<path d="M130.201 239.553H123.853L122.039 258.164L129.294 258.618L129.471 257.029L124.306 256.802L125.004 241.664L130.201 242.04V239.553Z" fill="#949494"/>
<path d="M132.209 249.226C132.15 248.985 132.019 248.745 131.806 248.618C131.434 248.391 130.84 248.541 130.749 248.995C130.636 249.181 130.672 249.439 130.781 249.635C130.831 249.721 130.917 249.762 131.012 249.78C131.094 249.871 131.198 249.939 131.312 249.98C131.375 250.025 131.443 250.066 131.529 250.075C131.661 250.089 131.81 250.043 131.915 249.952C131.924 249.948 131.933 249.943 131.942 249.939C132.214 249.784 132.277 249.521 132.209 249.226Z" fill="#363636"/>
<path d="M138.612 249.471C138.444 249.049 138.099 248.563 137.569 248.74C137.165 248.876 137.038 249.389 137.233 249.743C137.32 249.898 137.451 249.993 137.601 250.034C137.641 250.056 137.682 250.075 137.728 250.088C138 250.174 138.294 250.111 138.498 249.907C138.603 249.802 138.671 249.612 138.612 249.471Z" fill="#363636"/>
<path d="M144.692 248.872C144.538 248.568 144.207 248.373 143.862 248.386C143.527 248.4 143.187 248.604 143.105 248.949C143.037 249.253 143.173 249.58 143.454 249.726C143.545 249.771 143.631 249.789 143.713 249.785C143.908 249.903 144.175 249.921 144.388 249.807C144.733 249.626 144.865 249.213 144.692 248.872Z" fill="#363636"/>
<path d="M157 389H85.5L100.465 279.798L159.542 297.964L157 389Z" fill="#FF7A00"/>
</g>
<path d="M235.032 275.24C233.336 275.24 231.8 274.872 230.424 274.136C229.064 273.384 227.992 272.352 227.208 271.04C226.44 269.728 226.056 268.248 226.056 266.6C226.056 264.952 226.448 263.472 227.232 262.16C228.016 260.848 229.088 259.824 230.448 259.088C231.824 258.336 233.36 257.96 235.056 257.96C236.432 257.96 237.688 258.2 238.824 258.68C239.96 259.16 240.92 259.856 241.704 260.768L239.688 262.664C238.472 261.352 236.976 260.696 235.2 260.696C234.048 260.696 233.016 260.952 232.104 261.464C231.192 261.96 230.48 262.656 229.968 263.552C229.456 264.448 229.2 265.464 229.2 266.6C229.2 267.736 229.456 268.752 229.968 269.648C230.48 270.544 231.192 271.248 232.104 271.76C233.016 272.256 234.048 272.504 235.2 272.504C236.976 272.504 238.472 271.84 239.688 270.512L241.704 272.432C240.92 273.344 239.952 274.04 238.8 274.52C237.664 275 236.408 275.24 235.032 275.24ZM255.866 275L252.434 270.08C252.29 270.096 252.074 270.104 251.786 270.104H247.994V275H244.874V258.2H251.786C253.242 258.2 254.506 258.44 255.578 258.92C256.666 259.4 257.498 260.088 258.074 260.984C258.65 261.88 258.938 262.944 258.938 264.176C258.938 265.44 258.626 266.528 258.002 267.44C257.394 268.352 256.514 269.032 255.362 269.48L259.226 275H255.866ZM255.794 264.176C255.794 263.104 255.442 262.28 254.738 261.704C254.034 261.128 253.002 260.84 251.642 260.84H247.994V267.536H251.642C253.002 267.536 254.034 267.248 254.738 266.672C255.442 266.08 255.794 265.248 255.794 264.176ZM275.208 272.384V275H262.608V258.2H274.872V260.816H265.728V265.184H273.84V267.752H265.728V272.384H275.208ZM289.762 271.112H281.362L279.706 275H276.49L284.05 258.2H287.122L294.706 275H291.442L289.762 271.112ZM288.73 268.664L285.562 261.32L282.418 268.664H288.73ZM299.587 260.84H294.019V258.2H308.275V260.84H302.707V275H299.587V260.84ZM318.41 275.24C316.698 275.24 315.154 274.872 313.778 274.136C312.402 273.384 311.322 272.352 310.538 271.04C309.754 269.712 309.362 268.232 309.362 266.6C309.362 264.968 309.754 263.496 310.538 262.184C311.322 260.856 312.402 259.824 313.778 259.088C315.154 258.336 316.698 257.96 318.41 257.96C320.122 257.96 321.666 258.336 323.042 259.088C324.418 259.824 325.498 260.848 326.282 262.16C327.066 263.472 327.458 264.952 327.458 266.6C327.458 268.248 327.066 269.728 326.282 271.04C325.498 272.352 324.418 273.384 323.042 274.136C321.666 274.872 320.122 275.24 318.41 275.24ZM318.41 272.504C319.53 272.504 320.538 272.256 321.434 271.76C322.33 271.248 323.034 270.544 323.546 269.648C324.058 268.736 324.314 267.72 324.314 266.6C324.314 265.48 324.058 264.472 323.546 263.576C323.034 262.664 322.33 261.96 321.434 261.464C320.538 260.952 319.53 260.696 318.41 260.696C317.29 260.696 316.282 260.952 315.386 261.464C314.49 261.96 313.786 262.664 313.274 263.576C312.762 264.472 312.506 265.48 312.506 266.6C312.506 267.72 312.762 268.736 313.274 269.648C313.786 270.544 314.49 271.248 315.386 271.76C316.282 272.256 317.29 272.504 318.41 272.504ZM341.937 275L338.505 270.08C338.361 270.096 338.145 270.104 337.857 270.104H334.065V275H330.945V258.2H337.857C339.313 258.2 340.577 258.44 341.649 258.92C342.737 259.4 343.569 260.088 344.145 260.984C344.721 261.88 345.009 262.944 345.009 264.176C345.009 265.44 344.697 266.528 344.073 267.44C343.465 268.352 342.585 269.032 341.433 269.48L345.297 275H341.937ZM341.865 264.176C341.865 263.104 341.513 262.28 340.809 261.704C340.105 261.128 339.073 260.84 337.713 260.84H334.065V267.536H337.713C339.073 267.536 340.105 267.248 340.809 266.672C341.513 266.08 341.865 265.248 341.865 264.176Z" fill="#FF7E3D"/>
<defs>
<clipPath id="clip0">
<rect width="216" height="346" fill="white" transform="translate(64 43)"/>
</clipPath>
</defs>
</svg>
