<svg width="186" height="210" viewBox="0 0 186 210" fill="none" xmlns="http://www.w3.org/2000/svg">
<path d="M15.4412 102.541L22.4516 109.245L29.1261 113.011C30.3361 113.694 31.3582 114.679 32.0372 115.893C34.7352 120.726 30.7316 125.941 25.9117 125.021C24.9654 124.839 24.0823 124.416 23.3202 123.825L15.4791 117.741L9.65693 110.07C7.76617 108.162 7.80951 105.068 9.75264 103.215C11.2894 101.75 13.6064 101.475 15.4412 102.541Z" fill="#FF7A00"/>
<path d="M11.5206 108.796L17.3428 116.468L25.1857 122.554C25.9478 123.144 26.8308 123.57 27.7771 123.749C28.9817 123.979 30.1338 123.825 31.1433 123.392C29.8413 124.704 27.9505 125.412 25.9135 125.023C24.9672 124.842 24.0841 124.418 23.322 123.827L15.4791 117.741L9.65693 110.07C7.76617 108.162 7.80951 105.069 9.75264 103.216C10.2276 102.763 10.7784 102.422 11.3653 102.201C9.67498 104.074 9.71471 106.976 11.5206 108.796Z" fill="#FF9838"/>
<path d="M22.3506 121.099C24.3876 118.248 23.696 112.424 26.4897 111.656C31.3944 113.995 34.1972 117.165 32.3931 122.159C32.3931 122.159 28.6766 125.124 28.5809 125.051C28.4888 124.979 22.3506 121.099 22.3506 121.099Z" fill="#FF9838"/>
<path d="M15.4415 102.542C15.9977 103.13 16.5557 103.715 17.1191 104.297C17.6826 104.876 18.2424 105.461 18.8094 106.037L20.5088 107.769L22.2189 109.49L22.2424 109.513L22.2876 109.541C23.66 110.367 25.0415 111.176 26.4212 111.988L28.4926 113.203L28.7526 113.354L28.8826 113.43L29.0036 113.502C29.1662 113.598 29.3215 113.703 29.475 113.81C29.782 114.026 30.0691 114.268 30.3382 114.529C30.8745 115.051 31.3278 115.652 31.6583 116.317C31.9924 116.98 32.2343 117.688 32.312 118.416C32.3626 118.779 32.3589 119.145 32.3373 119.509C32.3084 119.873 32.2416 120.231 32.1495 120.583C32.0447 120.931 31.9183 121.273 31.7522 121.597C31.5806 121.918 31.3946 122.231 31.1635 122.514C30.7138 123.084 30.154 123.57 29.5201 123.919L29.4027 123.986L29.2799 124.044C29.1987 124.082 29.1174 124.124 29.0343 124.158C28.8664 124.224 28.6984 124.294 28.5251 124.341C28.3553 124.401 28.1765 124.434 28.0014 124.477L27.7341 124.521C27.6889 124.528 27.6456 124.535 27.6005 124.541L27.465 124.552C26.7463 124.617 26.0059 124.533 25.3178 124.309C24.9711 124.197 24.637 124.046 24.3156 123.867C24.1548 123.776 23.9995 123.678 23.8478 123.573C23.7702 123.521 23.6979 123.467 23.6221 123.41L23.3819 123.229L21.4677 121.778C20.8302 121.295 20.1855 120.818 19.5444 120.338C18.2604 119.38 16.9801 118.418 15.6871 117.473L15.7485 117.536L14.2442 115.656L12.7272 113.785C12.2234 113.16 11.7087 112.542 11.1994 111.921C10.6902 111.3 10.1737 110.684 9.65723 110.07C10.1105 110.734 10.5656 111.396 11.0261 112.053C11.4884 112.711 11.9435 113.372 12.4112 114.026L13.8053 115.991L15.2121 117.947L15.232 117.976L15.2735 118.011C16.5105 119.029 17.7602 120.032 19.0081 121.036C19.6329 121.537 20.2541 122.043 20.8808 122.541L22.7625 124.035L22.9973 124.222C23.0803 124.287 23.167 124.354 23.2537 124.416C23.4289 124.542 23.6077 124.662 23.7955 124.773C24.1675 124.992 24.5612 125.182 24.9747 125.325C25.1806 125.397 25.3901 125.461 25.6032 125.51C25.8181 125.562 26.033 125.589 26.2479 125.624C26.6813 125.671 27.1201 125.696 27.5571 125.655L27.7215 125.642C27.7756 125.637 27.8298 125.627 27.884 125.62C27.9923 125.604 28.1007 125.589 28.209 125.571C28.4221 125.522 28.6388 125.483 28.8483 125.414C29.0614 125.356 29.2637 125.272 29.4677 125.193C29.5689 125.151 29.6664 125.1 29.7657 125.055L29.9138 124.984L30.0583 124.905C30.8294 124.485 31.5066 123.903 32.0483 123.217C32.3228 122.876 32.5486 122.497 32.7526 122.11C32.9513 121.719 33.103 121.307 33.2276 120.885C33.3377 120.461 33.419 120.029 33.4479 119.59C33.4714 119.154 33.4678 118.713 33.4046 118.281C33.298 117.413 33.0109 116.578 32.6027 115.821C32.2018 115.058 31.6619 114.372 31.037 113.792C30.7246 113.502 30.3905 113.234 30.0384 112.997C29.8614 112.879 29.6826 112.765 29.4984 112.66L29.3612 112.582L29.2294 112.51L28.9657 112.365L26.8546 111.22C25.446 110.459 24.0393 109.695 22.6234 108.947L22.6903 108.997L20.8952 107.367L19.0893 105.748C18.4898 105.206 17.8794 104.673 17.2744 104.137C16.664 103.603 16.0537 103.07 15.4415 102.542Z" fill="#FF7E3E"/>
<path d="M171.591 102.541L164.581 109.245L157.907 113.011C156.697 113.694 155.674 114.679 154.995 115.893C152.297 120.726 156.301 125.941 161.121 125.021C162.067 124.839 162.95 124.416 163.712 123.825L171.554 117.741L177.376 110.07C179.266 108.162 179.223 105.068 177.28 103.215C175.743 101.75 173.426 101.475 171.591 102.541Z" fill="#FF7A00"/>
<path d="M175.512 108.796L169.69 116.468L161.847 122.554C161.085 123.144 160.202 123.57 159.256 123.749C158.051 123.979 156.899 123.825 155.89 123.392C157.192 124.704 159.082 125.412 161.119 125.023C162.066 124.842 162.949 124.418 163.711 123.827L171.554 117.741L177.376 110.07C179.267 108.162 179.223 105.069 177.28 103.216C176.805 102.763 176.255 102.422 175.668 102.201C177.358 104.074 177.318 106.976 175.512 108.796Z" fill="#FF9838"/>
<path d="M164.683 121.099C162.646 118.248 163.337 112.425 160.544 111.657C155.639 113.995 152.836 117.165 154.64 122.159C154.64 122.159 158.357 125.124 158.452 125.052C158.546 124.979 164.683 121.099 164.683 121.099Z" fill="#FF9838"/>
<path d="M171.592 102.542C171.036 103.13 170.478 103.715 169.914 104.297C169.351 104.876 168.791 105.461 168.224 106.037L166.525 107.769L164.815 109.49L164.791 109.513L164.746 109.541C163.373 110.367 161.992 111.176 160.612 111.988L158.541 113.203L158.281 113.354L158.151 113.43L158.03 113.502C157.867 113.598 157.712 113.703 157.559 113.81C157.252 114.026 156.964 114.268 156.695 114.529C156.159 115.051 155.706 115.652 155.375 116.317C155.041 116.98 154.799 117.688 154.721 118.416C154.671 118.779 154.675 119.145 154.696 119.509C154.725 119.873 154.792 120.231 154.884 120.583C154.989 120.931 155.115 121.273 155.281 121.597C155.453 121.918 155.639 122.231 155.87 122.514C156.32 123.084 156.88 123.57 157.513 123.919L157.631 123.986L157.754 124.044C157.835 124.082 157.916 124.124 157.999 124.158C158.167 124.224 158.335 124.294 158.508 124.341C158.678 124.401 158.857 124.434 159.032 124.477L159.299 124.521C159.345 124.528 159.388 124.535 159.433 124.541L159.568 124.552C160.287 124.617 161.028 124.533 161.716 124.309C162.062 124.197 162.396 124.046 162.718 123.867C162.879 123.776 163.034 123.678 163.186 123.573C163.263 123.521 163.336 123.467 163.411 123.41L163.652 123.229L165.566 121.778C166.203 121.295 166.848 120.818 167.489 120.338C168.771 119.38 170.053 118.418 171.346 117.473L171.285 117.536L172.789 115.656L174.306 113.785C174.81 113.16 175.325 112.542 175.834 111.921C176.343 111.3 176.86 110.684 177.376 110.07C176.923 110.734 176.468 111.396 176.007 112.053C175.545 112.711 175.09 113.372 174.622 114.026L173.228 115.991L171.821 117.947L171.801 117.976L171.76 118.011C170.523 119.029 169.273 120.032 168.025 121.036C167.401 121.537 166.779 122.043 166.153 122.541L164.271 124.035L164.036 124.222C163.953 124.287 163.866 124.354 163.78 124.416C163.605 124.542 163.426 124.662 163.238 124.773C162.866 124.992 162.472 125.182 162.059 125.325C161.853 125.397 161.643 125.461 161.43 125.51C161.215 125.562 161.001 125.589 160.786 125.624C160.352 125.671 159.913 125.696 159.476 125.655L159.312 125.642C159.258 125.637 159.204 125.627 159.149 125.62C159.041 125.604 158.933 125.589 158.824 125.571C158.611 125.522 158.395 125.483 158.185 125.414C157.972 125.356 157.77 125.272 157.566 125.193C157.465 125.151 157.367 125.1 157.268 125.055L157.12 124.984L156.975 124.905C156.204 124.485 155.527 123.903 154.985 123.217C154.711 122.876 154.485 122.497 154.281 122.11C154.082 121.719 153.93 121.307 153.806 120.885C153.696 120.461 153.614 120.029 153.586 119.59C153.562 119.154 153.566 118.713 153.629 118.281C153.735 117.413 154.023 116.578 154.431 115.821C154.832 115.058 155.372 114.372 155.996 113.792C156.309 113.502 156.643 113.234 156.995 112.997C157.172 112.879 157.351 112.765 157.535 112.66L157.672 112.582L157.804 112.51L158.068 112.365L160.179 111.22C161.587 110.459 162.994 109.695 164.41 108.947L164.343 108.997L166.138 107.367L167.944 105.748C168.544 105.206 169.154 104.673 169.759 104.137C170.369 103.603 170.98 103.07 171.592 102.542Z" fill="#FF7E3E"/>
<path d="M93.0346 192.5C109.225 192.5 122.349 190.365 122.349 187.732C122.349 185.099 109.225 182.965 93.0346 182.965C76.8444 182.965 63.7197 185.099 63.7197 187.732C63.7197 190.365 76.8444 192.5 93.0346 192.5Z" fill="#000A11"/>
<path d="M84.9516 188.868H82.0784C80.4929 188.868 79.1637 187.665 78.9994 186.084L76.9082 165.862H89.9774L89.3291 172.598L88.1065 185.311L88.0342 186.062C87.8807 187.653 86.5462 188.868 84.9516 188.868Z" fill="#FF7A00"/>
<path d="M82.0367 189.747C85.3799 189.747 88.09 188.474 88.09 186.905C88.09 185.335 85.3799 184.062 82.0367 184.062C78.6936 184.062 75.9834 185.335 75.9834 186.905C75.9834 188.474 78.6936 189.747 82.0367 189.747Z" fill="#FF7A00"/>
<path d="M81.9248 173.615C86.7646 177.821 87.9691 186.454 87.9691 186.454L89.2025 173.899L81.9248 173.615Z" fill="#FF9838"/>
<path d="M101.6 188.868H104.473C106.059 188.868 107.388 187.665 107.552 186.084L109.643 165.862H96.5742L97.2225 172.598L98.4451 185.311L98.5173 186.062C98.6708 187.653 100.005 188.868 101.6 188.868Z" fill="#FF7A00"/>
<path d="M104.514 189.747C107.857 189.747 110.568 188.474 110.568 186.905C110.568 185.335 107.857 184.062 104.514 184.062C101.171 184.062 98.4609 185.335 98.4609 186.905C98.4609 188.474 101.171 189.747 104.514 189.747Z" fill="#FF7A00"/>
<path d="M104.626 173.615C99.7866 177.821 98.5821 186.454 98.5821 186.454L97.3486 173.899L104.626 173.615Z" fill="#FF9838"/>
<path d="M163.576 30.0899C163.531 26.3947 159.95 23.386 155.578 23.3679C151.759 23.3516 148.602 25.6267 147.896 28.6661C147.314 25.4165 143.983 22.9023 139.988 22.886C135.616 22.8679 132.109 25.8495 132.156 29.5429C132.156 29.6135 132.161 29.6823 132.165 29.7512H132.152C132.156 29.6226 132.158 29.5519 132.158 29.5429C132.113 25.9056 128.589 23.0473 124.286 23.031C119.982 23.0128 116.531 25.9473 116.577 29.5845C116.577 29.6189 116.58 29.6533 116.582 29.6896H116.573C116.575 29.6207 116.577 29.5501 116.577 29.4813C116.531 25.7861 112.95 22.7774 108.578 22.7593C104.206 22.7411 100.699 25.7227 100.746 29.4161C100.746 29.4867 100.752 29.5555 100.755 29.6244H100.748C100.748 29.561 100.748 29.5247 100.748 29.5193C100.703 25.8821 97.1778 22.9205 92.8744 22.9023C88.571 22.8842 85.1199 25.8187 85.1651 29.4559C85.1651 29.4903 85.1687 29.5266 85.1687 29.561H85.1596C85.1615 29.4921 85.1633 29.4215 85.1633 29.3527C85.1181 25.6575 81.537 22.6488 77.165 22.6306C72.793 22.6125 69.286 25.5941 69.3329 29.2875C69.3329 29.3581 69.3383 29.4269 69.3419 29.4958H69.3329C69.3347 29.4613 69.3347 29.4269 69.3347 29.3907C69.2896 25.7535 65.7645 22.7919 61.4611 22.7737C57.1577 22.7556 53.7066 25.6901 53.7518 29.3273C53.7518 29.3345 53.7536 29.3708 53.7572 29.4324H53.7482C53.75 29.3635 53.7518 29.2929 53.7518 29.2241C53.7066 25.5288 50.1256 22.5201 45.7535 22.502C41.3815 22.4839 37.8745 25.4654 37.9214 29.1607C37.9232 29.2313 37.9268 29.3001 37.9304 29.369H37.9214C37.9214 29.3345 37.9232 29.3001 37.9232 29.2639C37.8781 25.6267 34.353 22.6651 30.0496 22.6469C25.7462 22.6288 22.2951 25.5633 22.3403 29.2005C22.3457 29.686 35.1295 164.402 35.1295 164.402L154.85 164.887L160.095 87.6772C160.095 87.6772 160.093 87.6826 160.091 87.6862C161.942 57.2587 163.58 30.3417 163.576 30.0899Z" fill="#E2590C"/>
<path d="M92.0134 22.2797C93.032 22.3902 94.092 22.2417 95.0672 21.7942C97.7074 20.5842 98.7277 17.6534 97.348 15.2479C96.1182 13.1051 93.4004 12.1034 90.9552 12.7645C90.8902 11.9874 90.6536 11.2067 90.2292 10.4659C88.557 7.54957 84.6057 6.37399 81.4039 7.84121C78.2039 9.30842 76.965 12.8605 78.6373 15.7787C79.1484 16.6717 79.8743 17.3998 80.7267 17.9396C79.2405 19.6351 78.91 22.0406 80.1 24.1146C81.7217 26.9404 85.5502 28.0797 88.6509 26.6596C90.5868 25.772 91.7805 24.0983 92.0134 22.2797Z" fill="#FFEDD2"/>
<path d="M88.6536 26.6576C90.5877 25.7719 91.7832 24.0982 92.0144 22.2777C93.0329 22.3882 94.0929 22.2397 95.0681 21.7923C96.6501 21.0677 97.6505 19.7237 97.9015 18.2456C97.2966 18.9068 96.5345 19.4701 95.6334 19.8831C93.6722 20.7815 91.46 20.787 89.5548 20.0715C89.0925 21.872 87.7958 23.4732 85.8346 24.3717C84.1534 25.1433 82.2843 25.2574 80.585 24.8227C82.3981 27.1213 85.8256 27.9528 88.6536 26.6576Z" fill="#FCC365"/>
<path d="M73.6819 17.4214C74.1821 17.4359 74.6914 17.396 75.2006 17.2928C78.4458 16.6389 80.4521 13.7298 79.6792 10.7935C78.9586 8.05474 76.071 6.26147 73.0498 6.5676C73.0895 6.11294 73.0534 5.64379 72.9306 5.17283C72.2949 2.76189 69.6186 1.24215 66.9513 1.78013C64.2913 2.31629 62.6443 4.69644 63.2673 7.10195C61.5518 7.69065 60.5477 9.34625 60.9883 11.0163C61.4308 12.7009 63.1879 13.8095 65.0425 13.6591C64.0258 14.6989 63.5671 16.1552 63.9536 17.6206C64.5892 20.0316 67.2656 21.5513 69.9329 21.0133C71.941 20.6094 73.3731 19.1494 73.6819 17.4214ZM67.773 12.2571C67.7622 12.2589 67.7513 12.2608 67.7405 12.2626C67.7513 12.2499 67.7604 12.2372 67.7712 12.2227C67.773 12.2354 67.773 12.2463 67.773 12.2571Z" fill="#FFEDD2"/>
<path d="M69.9291 21.0155C71.9408 20.6097 73.3729 19.1497 73.6817 17.4217C74.1819 17.4362 74.6912 17.3963 75.2004 17.2931C78.4456 16.6392 80.4519 13.7301 79.679 10.7939C79.5093 10.149 79.2185 9.5585 78.8357 9.0332C78.87 9.13283 78.9007 9.23608 78.9296 9.33933C79.6339 12.0129 77.8063 14.663 74.8501 15.2589C73.6745 15.4962 72.4988 15.3712 71.4623 14.9691C72.0582 17.4126 70.3787 19.8181 67.6753 20.3634C67.3665 20.425 67.0577 20.4594 66.7525 20.4702C66.6568 20.5065 66.5593 20.5409 66.46 20.5735C67.4875 21.077 68.7083 21.2618 69.9291 21.0155Z" fill="#FCC365"/>
<path d="M94.7078 26.9098C94.5218 25.8429 93.9981 24.8086 93.1331 23.9446C90.7891 21.6043 86.818 21.396 84.2644 23.4791C81.9908 25.3339 81.6098 28.3807 83.2116 30.6793C82.2653 30.9655 81.3696 31.4274 80.5841 32.0668C77.4888 34.5919 77.2847 38.941 80.1272 41.7794C82.9696 44.6179 87.7841 44.8714 90.8794 42.3446C91.8257 41.5711 92.5011 40.6274 92.902 39.6094C95.4844 40.6401 98.5815 40.2959 100.783 38.499C103.782 36.0518 103.981 31.8386 101.225 29.0871C99.5061 27.3717 97.0447 26.6309 94.7078 26.9098Z" fill="#FFEDD2"/>
<path d="M101.225 29.0871C99.5062 27.3718 97.0448 26.6309 94.708 26.9099C94.5219 25.843 93.9982 24.8087 93.1332 23.9446C91.7282 22.5426 89.7382 21.905 87.8203 22.0699C88.8352 22.4974 89.7779 23.1114 90.5797 23.912C92.3206 25.651 93.0339 27.8971 92.7504 30.0363C95.1359 29.9965 97.5414 30.8623 99.2841 32.5994C100.778 34.0902 101.516 35.9577 101.516 37.8071C103.793 35.3147 103.736 31.5923 101.225 29.0871Z" fill="#FCC365"/>
<path d="M68.9077 47.8236C70.0562 48.1243 71.3077 48.1334 72.5249 47.7892C75.817 46.8546 77.603 43.672 76.5159 40.6814C75.5479 38.0187 72.626 36.4065 69.6734 36.7471C69.7601 35.845 69.6517 34.9103 69.3176 33.9902C67.9993 30.3638 63.6959 28.3441 59.7049 29.478C55.7139 30.6119 53.5469 34.472 54.8652 38.0966C55.2679 39.2069 55.9523 40.1633 56.8191 40.9277C54.755 42.6159 53.8719 45.3149 54.8092 47.8943C56.086 51.4084 60.2575 53.3646 64.1239 52.2651C66.5366 51.5822 68.2612 49.8687 68.9077 47.8236Z" fill="#FFEDD2"/>
<path d="M64.1235 52.267C66.5362 51.5805 68.2608 49.8687 68.9073 47.8237C70.0559 48.1244 71.3073 48.1334 72.5245 47.7892C74.4965 47.2277 75.9286 45.8601 76.5263 44.21C75.692 44.8639 74.6988 45.3801 73.5737 45.6989C71.1286 46.3945 68.5805 46.0232 66.5362 44.8802C65.6297 46.8636 63.8003 48.4776 61.3569 49.1713C59.2603 49.7673 57.0842 49.5807 55.2188 48.7927C56.826 51.7326 60.6003 53.2687 64.1235 52.267Z" fill="#FCC365"/>
<path d="M47.1024 29.5361C47.2595 28.9637 47.3389 28.3623 47.3317 27.741C47.2848 23.7849 43.7001 20.5625 39.3244 20.5426C35.2395 20.5245 31.9095 23.3049 31.523 26.8914C30.8874 26.7031 30.212 26.598 29.5113 26.5962C25.9158 26.5799 23.0318 29.201 23.0697 32.4524C23.1076 35.6947 26.0404 38.3375 29.6232 38.3665C29.9916 40.5329 32.0702 42.2085 34.5605 42.2193C37.0725 42.2302 39.124 40.5474 39.4129 38.3557C40.612 39.8537 42.5552 40.8372 44.7403 40.8481C48.3358 40.8644 51.2198 38.2433 51.1818 34.9919C51.153 32.5393 49.4699 30.4309 47.1024 29.5361ZM38.1633 34.7583C38.1633 34.7709 38.1633 34.7854 38.1633 34.7981C38.147 34.7818 38.1326 34.7655 38.1163 34.751C38.1307 34.7528 38.147 34.7564 38.1633 34.7583Z" fill="#FFEDD2"/>
<path d="M51.1817 34.9914C51.1528 32.5388 49.4697 30.4304 47.1004 29.5355C47.2575 28.9631 47.3369 28.3618 47.3297 27.7405C47.2828 23.7844 43.6981 20.562 39.3224 20.5421C38.3617 20.5384 37.4425 20.6906 36.5938 20.9695C36.7454 20.9623 36.8989 20.9569 37.0524 20.9569C41.038 20.975 44.3049 23.9112 44.3464 27.514C44.3626 28.9468 43.866 30.2673 43.0137 31.3397C46.6453 31.4103 49.6015 34.1002 49.6412 37.3951C49.6467 37.7719 49.6105 38.1378 49.5419 38.4946C49.5672 38.6178 49.5907 38.741 49.6105 38.8641C50.6038 37.8335 51.1997 36.4786 51.1817 34.9914Z" fill="#FCC365"/>
<path d="M80.661 28.2704C80.8181 27.698 80.8975 27.0967 80.8903 26.4754C80.8434 22.5193 77.2587 19.2969 72.883 19.2769C68.7981 19.2588 65.4681 22.0375 65.0816 25.6258C64.446 25.4374 63.7706 25.3324 63.0699 25.3306C59.4744 25.3143 56.5904 27.9353 56.6283 31.1867C56.6662 34.4291 59.5972 37.0719 63.1818 37.1009C63.5502 39.2673 65.6288 40.9428 68.1191 40.9537C70.6311 40.9646 72.6826 39.28 72.9715 37.09C74.1706 38.588 76.1138 39.5716 78.2989 39.5825C81.8944 39.5988 84.7784 36.9777 84.7404 33.7263C84.7116 31.2755 83.0285 29.1671 80.661 28.2704ZM71.7219 33.4944C71.7219 33.5071 71.7219 33.5216 71.7219 33.5343C71.7056 33.518 71.6912 33.5017 71.6749 33.4872C71.6893 33.489 71.7056 33.4926 71.7219 33.4944Z" fill="#FFEDD2"/>
<path d="M84.7402 33.7258C84.7113 31.2732 83.0283 29.1647 80.6589 28.2699C80.8161 27.6975 80.8955 27.0961 80.8883 26.4748C80.8413 22.5188 77.2567 19.2964 72.881 19.2764C71.9203 19.2728 71.0011 19.425 70.1523 19.7039C70.304 19.6967 70.4575 19.6912 70.611 19.6912C74.5966 19.7093 77.8634 22.6456 77.905 26.2484C77.9212 27.6812 77.4246 29.0017 76.5722 30.074C80.2039 30.1447 83.1601 32.8346 83.1998 36.1295C83.2034 36.5062 83.1691 36.8721 83.1005 37.229C83.1258 37.3522 83.1493 37.4753 83.1673 37.5985C84.1624 36.5696 84.7583 35.2147 84.7402 33.7258Z" fill="#FCC365"/>
<path d="M61.5568 16.231C61.8367 15.7691 62.0552 15.2674 62.2033 14.733C63.1496 11.3168 60.8398 7.80994 57.0457 6.90244C53.5025 6.05471 49.9197 7.77009 48.6899 10.7806C48.186 10.489 47.6244 10.2625 47.0158 10.1158C43.8971 9.36953 40.7404 11.0396 39.962 13.8473C39.1873 16.6476 41.0727 19.5205 44.177 20.2758C43.9567 22.2176 45.3436 24.0815 47.5034 24.5996C49.6813 25.1213 51.8827 24.0888 52.6809 22.2611C53.3472 23.7953 54.7901 25.0379 56.6863 25.4926C59.8051 26.2389 62.9617 24.5688 63.7401 21.7612C64.327 19.6437 63.3897 17.4845 61.5568 16.231ZM52.493 18.9082C52.4894 18.9191 52.4858 18.9318 52.4822 18.9427C52.4732 18.9264 52.4623 18.9082 52.4533 18.8919C52.4678 18.8974 52.4804 18.9028 52.493 18.9082Z" fill="#FFEDD2"/>
<path d="M63.7406 21.7611C64.3275 19.6436 63.3902 17.4844 61.5573 16.2309C61.8372 15.769 62.0557 15.2673 62.2038 14.7329C63.15 11.3167 60.8403 7.80986 57.0462 6.90236C56.2119 6.7031 55.3775 6.64695 54.5703 6.71397C54.7039 6.73752 54.8376 6.76469 54.9712 6.7973C58.4277 7.6251 60.5315 10.8186 59.6701 13.9305C59.327 15.1677 58.5667 16.2038 57.559 16.9537C60.6941 17.7543 62.592 20.6724 61.8047 23.5181C61.7144 23.8424 61.5916 24.1521 61.4435 24.4455C61.4345 24.556 61.4236 24.6683 61.411 24.7788C62.5306 24.0923 63.3848 23.0472 63.7406 21.7611Z" fill="#FCC365"/>
<path d="M113.814 29.8801C113.433 28.6701 112.542 27.5833 111.235 26.9077C108.62 25.56 105.326 26.3661 103.876 28.7082C102.919 30.2551 103.005 32.0864 103.928 33.5391C102.673 34.1242 101.59 35.0335 100.849 36.229C98.8103 39.5221 100.138 43.7281 103.813 45.6228C107.488 47.5175 112.12 46.3836 114.159 43.0905C114.583 42.404 114.859 41.6776 115.002 40.9422C117.79 41.607 120.802 40.5455 122.261 38.1871C124.006 35.3686 122.87 31.7712 119.726 30.15C117.83 29.1719 115.638 29.1375 113.814 29.8801Z" fill="#FFEDD2"/>
<path d="M113.813 29.8803C113.432 28.6703 112.542 27.5835 111.234 26.9079C109.338 25.9297 107.084 26.0873 105.436 27.1397C106.786 26.8445 108.265 26.9984 109.582 27.6777C111.633 28.7356 112.699 30.7625 112.459 32.7441C114.154 31.775 116.383 31.67 118.274 32.6445C121.002 34.0501 121.986 37.1729 120.473 39.6165C120.312 39.8773 120.126 40.1182 119.924 40.3428C120.872 39.8429 121.687 39.1165 122.261 38.1873C124.005 35.3688 122.869 31.7714 119.725 30.1502C117.829 29.1721 115.637 29.1377 113.813 29.8803Z" fill="#FCC365"/>
<path d="M58.3403 43.096C59.4889 43.3967 60.7403 43.4057 61.9575 43.0597C65.2496 42.1251 67.0356 38.9425 65.9485 35.9519C64.9805 33.2892 62.0586 31.6771 59.106 32.0176C59.1927 31.1155 59.0843 30.1809 58.7502 29.2607C57.432 25.6343 53.1285 23.6146 49.1376 24.7485C45.1466 25.8825 42.9795 29.7425 44.2978 33.3671C44.7005 34.4756 45.3849 35.4339 46.2518 36.1983C44.1876 37.8883 43.3046 40.5854 44.2418 43.1648C45.5186 46.6789 49.6902 48.6352 53.5565 47.5357C55.971 46.8528 57.6938 45.141 58.3403 43.096Z" fill="#FFEDD2"/>
<path d="M53.5581 47.5393C55.9708 46.8528 57.6954 45.141 58.3419 43.096C59.4904 43.3967 60.7419 43.4057 61.9591 43.0597C63.9311 42.4982 65.3632 41.1306 65.9609 39.4805C65.1266 40.1362 64.1334 40.6506 63.0083 40.9694C60.5631 41.665 58.015 41.2937 55.9708 40.1507C55.0642 42.1341 53.2349 43.7481 50.7915 44.4418C48.6949 45.0378 46.5188 44.8512 44.6533 44.0632C46.2587 47.0031 50.033 48.541 53.5581 47.5393Z" fill="#FCC365"/>
<path d="M102.417 27.8061C102.644 28.7154 103.159 29.5794 103.957 30.2786C106.121 32.1733 109.545 32.148 111.607 30.2225C113.444 28.5071 113.579 25.8643 112.058 23.9678C112.853 23.6725 113.595 23.2288 114.229 22.6364C116.73 20.3016 116.631 16.5466 114.009 14.2498C111.387 11.9529 107.233 11.9837 104.732 14.3168C103.966 15.0305 103.446 15.8782 103.166 16.7766C100.882 16.0231 98.2417 16.4796 96.4647 18.1388C94.0412 20.4012 94.1369 24.0403 96.6796 26.2664C98.2652 27.6576 100.427 28.1684 102.417 27.8061Z" fill="#FFEDD2"/>
<path d="M96.6798 26.2688C98.2654 27.6581 100.427 28.1689 102.419 27.8066C102.646 28.7159 103.161 29.58 103.959 30.2792C105.256 31.4149 107.006 31.8605 108.644 31.6196C107.744 31.3044 106.896 30.8226 106.157 30.1759C104.55 28.7685 103.797 26.8701 103.905 25.0135C101.857 25.1711 99.7354 24.5498 98.1281 23.1423C96.7502 21.9341 95.999 20.3655 95.8816 18.7715C94.0793 21.0393 94.3647 24.24 96.6798 26.2688Z" fill="#FCC365"/>
<path d="M93.964 20.6059C92.9455 20.7164 91.8855 20.5678 90.9103 20.1204C88.2701 18.9104 87.2498 15.9796 88.6295 13.5741C89.8593 11.4312 92.5771 10.4295 95.0223 11.0907C95.0873 10.3136 95.3239 9.53291 95.7483 8.79206C97.4205 5.87575 101.372 4.70016 104.574 6.16738C107.774 7.63459 109.012 11.1867 107.34 14.1048C106.829 14.9978 106.103 15.726 105.251 16.2658C106.737 17.9612 107.068 20.3668 105.877 22.4408C104.256 25.2665 100.427 26.4059 97.3266 24.9858C95.3907 24.0982 94.1952 22.4245 93.964 20.6059Z" fill="#FFEDD2"/>
<path d="M97.3251 24.9838C95.391 24.098 94.1955 22.4243 93.9643 20.6039C92.9458 20.7144 91.8858 20.5659 90.9106 20.1185C89.3286 19.3939 88.3282 18.0499 88.0771 16.5718C88.6821 17.2329 89.4442 17.7963 90.3453 18.2093C92.3065 19.1077 94.5187 19.1131 96.4239 18.3995C96.8862 20.2 98.1829 21.8012 100.144 22.6997C101.825 23.4713 103.694 23.5854 105.394 23.1507C103.581 25.4475 100.151 26.2789 97.3251 24.9838Z" fill="#FCC365"/>
<path d="M116.046 19.3414C118.713 19.8794 121.389 18.3597 122.025 15.9487C122.411 14.4833 121.953 13.027 120.936 11.9873C122.791 12.1376 124.546 11.029 124.99 9.34446C125.429 7.67437 124.427 6.01877 122.711 5.43008C123.332 3.02457 121.687 0.644418 119.027 0.108251C116.36 -0.429728 113.684 1.09002 113.048 3.50096C112.923 3.97192 112.889 4.43925 112.929 4.89572C109.908 4.5896 107.02 6.38105 106.299 9.12166C105.526 12.0561 107.533 14.9652 110.778 15.6209C111.287 15.7241 111.797 15.764 112.297 15.7495C112.604 17.4757 114.034 18.9357 116.046 19.3414ZM118.204 10.5508C118.215 10.5635 118.224 10.5762 118.234 10.5907C118.224 10.5889 118.213 10.5871 118.202 10.5853C118.204 10.5726 118.204 10.5617 118.204 10.5508Z" fill="#FFEDD2"/>
<path d="M116.046 19.3416C114.035 18.9359 112.603 17.4759 112.294 15.7479C111.794 15.7624 111.284 15.7225 110.775 15.6193C107.53 14.9653 105.524 12.0563 106.296 9.12003C106.466 8.47518 106.757 7.88467 107.14 7.35938C107.106 7.459 107.075 7.56225 107.046 7.6655C106.342 10.3391 108.169 12.9891 111.125 13.5851C112.301 13.8224 113.477 13.6974 114.513 13.2953C113.917 15.7388 115.597 18.1443 118.3 18.6895C118.609 18.7511 118.918 18.7855 119.223 18.7964C119.319 18.8326 119.416 18.8671 119.515 18.8997C118.49 19.4032 117.267 19.588 116.046 19.3416Z" fill="#FCC365"/>
<path d="M91.2697 25.238C91.4558 24.1711 91.9795 23.1368 92.8445 22.2727C95.1885 19.9324 99.1596 19.7241 101.713 21.8072C103.987 23.6621 104.368 26.7088 102.766 29.0074C103.712 29.2936 104.608 29.7555 105.394 30.3949C108.489 32.92 108.693 37.2691 105.85 40.1075C103.008 42.946 98.1935 43.1996 95.0982 40.6727C94.1519 39.8992 93.4765 38.9555 93.0756 37.9375C90.4932 38.9682 87.3961 38.624 85.1948 36.8271C82.1952 34.38 81.9965 30.1667 84.7523 27.4152C86.4697 25.698 88.9329 24.9572 91.2697 25.238Z" fill="#FFEDD2"/>
<path d="M84.7532 27.4133C86.4724 25.6979 88.9339 24.9571 91.2707 25.236C91.4567 24.1691 91.9804 23.1348 92.8454 22.2708C94.2504 20.8688 96.2404 20.2312 98.1583 20.396C97.1434 20.8235 96.2007 21.4376 95.3989 22.2382C93.658 23.9771 92.9447 26.2232 93.2282 28.3625C90.8427 28.3226 88.4372 29.1885 86.6946 30.9256C85.2011 32.4163 84.4625 34.2839 84.4625 36.1333C82.1853 33.6408 82.2413 29.9203 84.7532 27.4133Z" fill="#FCC365"/>
<path d="M117.069 46.1493C115.921 46.45 114.669 46.4591 113.452 46.1149C110.16 45.1802 108.374 41.9977 109.461 39.0071C110.429 36.3443 113.351 34.7322 116.304 35.0728C116.217 34.1707 116.325 33.236 116.659 32.3158C117.978 28.6895 122.281 26.6698 126.272 27.8037C130.263 28.9376 132.43 32.7977 131.112 36.4222C130.709 37.5326 130.025 38.489 129.158 39.2534C131.222 40.9416 132.105 43.6406 131.168 46.22C129.891 49.734 125.719 51.6903 121.853 50.5908C119.439 49.9079 117.716 48.1944 117.069 46.1493Z" fill="#FFEDD2"/>
<path d="M121.851 50.5927C119.438 49.9061 117.714 48.1944 117.067 46.1493C115.919 46.45 114.667 46.4591 113.45 46.1149C111.478 45.5534 110.046 44.1858 109.448 42.5356C110.283 43.1896 111.276 43.7058 112.401 44.0246C114.846 44.7202 117.394 44.3488 119.438 43.2059C120.345 45.1893 122.174 46.8033 124.618 47.497C126.714 48.093 128.89 47.9064 130.756 47.1184C129.15 50.0583 125.376 51.5944 121.851 50.5927Z" fill="#FCC365"/>
<path d="M134.793 33.3181C134.755 36.5695 137.639 39.1906 141.235 39.1743C143.42 39.1652 145.365 38.1817 146.562 36.6818C146.851 38.8736 148.904 40.5564 151.415 40.5455C153.905 40.5346 155.984 38.8591 156.352 36.6927C159.935 36.6637 162.868 34.0209 162.905 30.7786C162.943 27.5271 160.059 24.9061 156.464 24.9224C155.763 24.926 155.088 25.0293 154.452 25.2176C154.066 21.6293 150.737 18.8488 146.651 18.8688C142.275 18.8887 138.69 22.1111 138.643 26.0672C138.636 26.6867 138.716 27.288 138.873 27.8622C136.507 28.7571 134.822 30.8655 134.793 33.3181ZM147.861 33.0772C147.844 33.0935 147.83 33.108 147.814 33.1243C147.814 33.1116 147.814 33.0971 147.814 33.0844C147.83 33.0826 147.844 33.079 147.861 33.0772Z" fill="#FFEDD2"/>
<path d="M134.793 33.3181C134.822 30.8655 136.505 28.757 138.875 27.8622C138.718 27.2898 138.638 26.6884 138.645 26.0671C138.692 22.1111 142.277 18.8886 146.653 18.8687C147.613 18.8651 148.533 19.0172 149.381 19.2962C149.23 19.289 149.076 19.2835 148.923 19.2835C144.937 19.3016 141.67 22.2379 141.629 25.8407C141.612 27.2735 142.109 28.594 142.961 29.6663C139.33 29.737 136.374 32.4269 136.334 35.7218C136.328 36.0985 136.364 36.4644 136.433 36.8213C136.408 36.9444 136.384 37.0676 136.364 37.1908C135.371 36.1601 134.775 34.8052 134.793 33.3181Z" fill="#FCC365"/>
<path d="M101.236 32.054C101.198 35.3054 104.082 37.9264 107.677 37.9101C109.862 37.8993 111.807 36.9175 113.005 35.4177C113.294 37.6094 115.347 39.2922 117.857 39.2813C120.347 39.2705 122.426 37.595 122.794 35.4285C126.377 35.3996 129.31 32.7568 129.348 29.5144C129.386 26.263 126.502 23.6419 122.906 23.6582C122.206 23.6618 121.53 23.7651 120.895 23.9535C120.508 20.3651 117.18 17.5847 113.093 17.6046C108.717 17.6245 105.133 20.847 105.086 24.803C105.079 25.4225 105.158 26.0239 105.315 26.5981C102.95 27.4929 101.265 29.6013 101.236 32.054ZM114.303 31.813C114.287 31.8293 114.272 31.8456 114.256 31.8601C114.256 31.8475 114.256 31.833 114.256 31.8203C114.272 31.8185 114.287 31.8149 114.303 31.813Z" fill="#FFEDD2"/>
<path d="M101.235 32.0539C101.264 29.6013 102.947 27.4929 105.316 26.598C105.159 26.0257 105.079 25.4243 105.087 24.803C105.134 20.8469 108.718 17.6245 113.094 17.6046C114.055 17.6009 114.974 17.7531 115.823 18.032C115.671 18.0248 115.517 18.0194 115.364 18.0194C111.378 18.0375 108.112 20.9737 108.07 24.5765C108.054 26.0093 108.55 27.3298 109.403 28.4022C105.771 28.4728 102.815 31.1627 102.775 34.4576C102.772 34.8344 102.806 35.2003 102.875 35.5571C102.849 35.6803 102.826 35.8035 102.808 35.9266C101.813 34.896 101.217 33.5411 101.235 32.0539Z" fill="#FCC365"/>
<path d="M122.237 20.0896C123.014 22.8972 126.172 24.5673 129.291 23.821C131.187 23.3664 132.628 22.1237 133.296 20.5895C134.094 22.4172 136.296 23.4497 138.474 22.928C140.634 22.4118 142.02 20.546 141.8 18.6042C144.904 17.8489 146.792 14.9761 146.015 12.1757C145.239 9.36803 142.08 7.69795 138.961 8.44423C138.353 8.58914 137.793 8.81738 137.287 9.10901C136.057 6.09669 132.473 4.38131 128.931 5.23085C125.137 6.14016 122.828 9.64517 123.774 13.0614C123.922 13.5976 124.142 14.0993 124.42 14.5594C122.587 15.8129 121.652 17.9721 122.237 20.0896ZM133.524 17.2204C133.513 17.2367 133.504 17.2548 133.495 17.2711C133.491 17.2602 133.488 17.2493 133.484 17.2367C133.499 17.2312 133.511 17.224 133.524 17.2204Z" fill="#FFEDD2"/>
<path d="M122.236 20.0897C121.649 17.9722 122.586 15.813 124.419 14.5596C124.139 14.0977 123.921 13.5959 123.773 13.0616C122.826 9.64529 125.136 6.13847 128.93 5.23097C129.765 5.03172 130.599 4.97557 131.406 5.04259C131.272 5.06613 131.139 5.09331 131.005 5.12591C127.549 5.95371 125.445 9.14717 126.306 12.2591C126.649 13.4963 127.41 14.5324 128.417 15.2823C125.282 16.0829 123.384 19.0011 124.172 21.8467C124.262 22.171 124.385 22.4807 124.533 22.7742C124.542 22.8846 124.553 22.997 124.565 23.1074C123.448 22.4191 122.592 21.374 122.236 20.0897Z" fill="#FCC365"/>
<path d="M72.164 28.2063C72.545 26.9963 73.4353 25.9095 74.7446 25.2338C77.3595 23.8862 80.6534 24.6922 82.1035 27.0343C83.0607 28.5813 82.974 30.4126 82.0512 31.8653C83.3063 32.4504 84.3898 33.3597 85.1302 34.5552C87.169 37.8483 85.8417 42.0543 82.1667 43.949C78.4918 45.8437 73.8597 44.7098 71.8209 41.4167C71.3965 40.7302 71.1202 40.0038 70.9775 39.2684C68.1892 39.9332 65.177 38.8717 63.7179 36.5133C61.9734 33.6948 63.1093 30.0974 66.2533 28.4762C68.1477 27.4981 70.3382 27.4636 72.164 28.2063Z" fill="#FFEDD2"/>
<path d="M72.164 28.2065C72.545 26.9965 73.4353 25.9097 74.7446 25.234C76.6407 24.2559 78.8945 24.4135 80.5432 25.4659C79.1924 25.1706 77.7134 25.3246 76.3969 26.0039C74.3455 27.0617 73.28 29.0887 73.5202 31.0703C71.8245 30.1012 69.596 29.9962 67.7053 30.9707C64.9766 32.3763 63.9924 35.4991 65.5057 37.9427C65.6682 38.2035 65.8524 38.4444 66.0547 38.669C65.1066 38.1691 64.2921 37.4427 63.7179 36.5135C61.9734 33.695 63.1093 30.0976 66.2533 28.4764C68.1477 27.4983 70.3382 27.4639 72.164 28.2065Z" fill="#FCC365"/>
<path d="M127.635 41.4226C126.486 41.7233 125.235 41.7324 124.017 41.3864C120.725 40.4517 118.939 37.2691 120.026 34.2786C120.994 31.6158 123.916 30.0037 126.869 30.3443C126.782 29.4422 126.891 28.5075 127.225 27.5873C128.543 23.961 132.846 21.9413 136.837 23.0752C140.828 24.2091 142.995 28.0692 141.677 31.6937C141.274 32.8023 140.59 33.7605 139.723 34.5249C141.787 36.2149 142.67 38.9121 141.733 41.4915C140.456 45.0055 136.285 46.9618 132.418 45.8623C130.006 45.1794 128.281 43.4677 127.635 41.4226Z" fill="#FFEDD2"/>
<path d="M132.418 45.8659C130.006 45.1794 128.281 43.4677 127.635 41.4226C126.486 41.7233 125.235 41.7324 124.017 41.3864C122.045 40.8249 120.613 39.4573 120.016 37.8071C120.85 38.4628 121.843 38.9773 122.968 39.2961C125.413 39.9916 127.961 39.6203 130.006 38.4773C130.912 40.4608 132.742 42.0747 135.185 42.7685C137.282 43.3644 139.458 43.1779 141.323 42.3899C139.716 45.3316 135.942 46.8676 132.418 45.8659Z" fill="#FCC365"/>
<path d="M83.5588 26.1325C83.3312 27.0418 82.8166 27.9058 82.0184 28.605C79.8549 30.4997 76.431 30.4743 74.3687 28.5488C72.5321 26.8335 72.3967 24.1907 73.9172 22.2942C73.1226 21.9989 72.3804 21.5551 71.7465 20.9628C69.2454 18.6279 69.3447 14.8729 71.9669 12.5761C74.589 10.2793 78.7425 10.3083 81.2437 12.6431C82.0093 13.3568 82.5294 14.2045 82.8094 15.103C85.0938 14.3495 87.734 14.8059 89.511 16.4651C91.9345 18.7276 91.8387 22.3666 89.2961 24.5928C87.7123 25.9839 85.5507 26.4947 83.5588 26.1325Z" fill="#FFEDD2"/>
<path d="M89.2979 24.5945C87.7124 25.9838 85.5507 26.4946 83.5589 26.1323C83.3313 27.0416 82.8166 27.9057 82.0184 28.6049C80.7218 29.7406 78.9719 30.1862 77.334 29.9453C78.2333 29.6301 79.0821 29.1483 79.8207 28.5016C81.4279 27.0942 82.181 25.1958 82.0726 23.3392C84.1205 23.4968 86.2424 22.8755 87.8496 21.468C89.2275 20.2598 89.9788 18.6912 90.0961 17.0972C91.8966 19.365 91.6131 22.5657 89.2979 24.5945Z" fill="#FCC365"/>
<path d="M156.574 166.847L147.688 174.327L155.279 38.8266L163.736 32.1372L156.574 166.847Z" fill="#D35119"/>
<path d="M29.746 166.847L38.6309 174.327L31.039 38.8266L22.582 32.1372L29.746 166.847Z" fill="#D35119"/>
<g opacity="0.1">
<g opacity="0.1">
<path opacity="0.1" d="M141.578 36.7145C141.58 36.6493 141.582 36.5823 141.582 36.5171C141.54 33.0193 138.371 30.17 134.503 30.1537C130.635 30.1356 127.532 32.9559 127.574 36.4537C127.574 36.5207 127.579 36.5859 127.581 36.6511L113.78 36.5877C113.782 36.5225 113.784 36.4573 113.784 36.3903C113.743 32.8925 110.573 30.0451 106.705 30.0269C102.837 30.0088 99.7343 32.831 99.7759 36.3269C99.7759 36.3939 99.7813 36.4591 99.7831 36.5244L91.1221 36.4845V172.28L147.718 172.539L155.211 36.7779L141.578 36.7145Z" fill="black"/>
</g>
<path opacity="0.1" d="M92.8076 30.3404C88.999 30.3223 85.9452 33.0991 85.9867 36.5426C85.9867 36.6096 85.9922 36.6748 85.994 36.74L88.7967 172.485L100.616 172.539C100.616 172.539 99.7801 36.9882 99.7764 36.6042C99.7367 33.1607 96.6162 30.3567 92.8076 30.3404Z" fill="black"/>
<path opacity="0.1" d="M120.606 30.3585C116.798 30.3404 113.744 33.1172 113.786 36.5588C113.786 36.6259 113.791 36.6911 113.793 36.7563L112.437 172.483L124.256 172.537C124.256 172.537 127.579 36.9646 127.573 36.5226C127.532 33.081 124.413 30.3766 120.606 30.3585Z" fill="black"/>
<path opacity="0.1" d="M155.377 36.9396C155.336 33.4419 152.167 30.5926 148.298 30.5763C144.466 30.5581 141.389 33.3259 141.371 36.7766L136.076 172.485L147.677 172.537C147.677 172.539 155.383 37.4903 155.377 36.9396Z" fill="black"/>
<g opacity="0.1">
<path opacity="0.1" d="M44.5467 36.7145C44.5449 36.6493 44.543 36.5823 44.543 36.5171C44.5846 33.0193 47.7539 30.17 51.6221 30.1537C55.4903 30.1356 58.5928 32.9559 58.5513 36.4537C58.5513 36.5207 58.5458 36.5859 58.544 36.6511L72.3446 36.5877C72.3428 36.5225 72.341 36.4573 72.341 36.3903C72.3825 32.8925 75.5518 30.0451 79.42 30.0269C83.2882 30.0088 86.3907 32.831 86.3492 36.3269C86.3492 36.3939 86.3438 36.4591 86.342 36.5244L95.003 36.4845V172.28L38.4067 172.539L30.9141 36.7779L44.5467 36.7145Z" fill="black"/>
</g>
<path opacity="0.1" d="M93.3184 30.3404C97.127 30.3223 100.181 33.0991 100.139 36.5426C100.137 36.6096 100.134 36.6748 100.132 36.74L97.3292 172.485L85.5098 172.539C85.5098 172.539 86.3459 36.9882 86.3495 36.6042C86.391 33.1607 89.5098 30.3567 93.3184 30.3404Z" fill="black"/>
<path opacity="0.1" d="M65.5208 30.3585C69.3294 30.3404 72.3832 33.1172 72.3416 36.5588C72.3416 36.6259 72.3362 36.6911 72.3344 36.7563L73.6906 172.483L61.8711 172.537C61.8711 172.537 58.5483 36.9646 58.5537 36.5226C58.5934 33.081 61.7122 30.3766 65.5208 30.3585Z" fill="black"/>
<path opacity="0.1" d="M30.748 36.9396C30.7896 33.4419 33.9589 30.5926 37.8271 30.5763C41.6592 30.5581 44.7364 33.3259 44.7545 36.7766L50.0493 172.485L38.4483 172.537C38.4501 172.539 30.7426 37.4903 30.748 36.9396Z" fill="black"/>
</g>
<path d="M141.578 38.5026C141.58 38.4374 141.582 38.3704 141.582 38.3052C141.54 34.8074 138.371 31.9581 134.503 31.9418C130.635 31.9237 127.532 34.744 127.574 38.2418C127.574 38.3088 127.579 38.374 127.581 38.4392L113.78 38.3758C113.782 38.3106 113.784 38.2454 113.784 38.1784C113.743 34.6806 110.573 31.8331 106.705 31.815C102.837 31.7969 99.7343 34.619 99.7759 38.115C99.7759 38.182 99.7813 38.2472 99.7831 38.3124L91.1221 38.2726V174.068L147.718 174.327L155.211 38.566L141.578 38.5026Z" fill="#FFFBE2"/>
<path d="M92.8076 32.1285C88.999 32.1104 85.9452 34.8872 85.9867 38.3307C85.9867 38.3977 85.9922 38.4629 85.994 38.5281L88.7967 174.273L100.616 174.327C100.616 174.327 99.7801 38.7763 99.7764 38.3922C99.7367 34.9506 96.6162 32.1448 92.8076 32.1285Z" fill="#FF7E3E"/>
<path d="M120.606 32.1466C116.798 32.1285 113.744 34.9053 113.786 38.3469C113.786 38.4139 113.791 38.4791 113.793 38.5444L112.437 174.271L124.256 174.325C124.256 174.325 127.579 38.7527 127.573 38.3107C127.532 34.8709 124.413 32.1647 120.606 32.1466Z" fill="#FF7E3E"/>
<path d="M155.377 38.7277C155.336 35.2299 152.167 32.3806 148.298 32.3643C144.466 32.3462 141.389 35.114 141.371 38.5647L136.076 174.273L147.677 174.326C147.677 174.327 155.383 39.2802 155.377 38.7277Z" fill="#FF7E3E"/>
<path d="M44.5458 38.5026C44.544 38.4374 44.5422 38.3704 44.5422 38.3052C44.5837 34.8074 47.7531 31.9581 51.6213 31.9418C55.4895 31.9237 58.592 34.744 58.5504 38.2418C58.5504 38.3088 58.545 38.374 58.5432 38.4392L72.3437 38.3758C72.3419 38.3106 72.3401 38.2454 72.3401 38.1784C72.3817 34.6806 75.551 31.8331 79.4192 31.815C83.2874 31.7969 86.3899 34.619 86.3483 38.115C86.3483 38.182 86.3429 38.2472 86.3411 38.3124L95.0021 38.2726V174.068L38.4058 174.327L30.915 38.566L44.5458 38.5026Z" fill="#FFFBE2"/>
<path d="M93.3184 32.1285C97.127 32.1104 100.181 34.8872 100.139 38.3307C100.137 38.3977 100.134 38.4629 100.132 38.5281L97.3292 174.273L85.5098 174.327C85.5098 174.327 86.3459 38.7763 86.3495 38.3922C86.391 34.9506 89.5098 32.1448 93.3184 32.1285Z" fill="#FF7E3E"/>
<path d="M65.5208 32.1466C69.3294 32.1285 72.3832 34.9053 72.3416 38.3469C72.3416 38.4139 72.3362 38.4791 72.3344 38.5444L73.6906 174.271L61.8711 174.325C61.8711 174.325 58.5483 38.7527 58.5537 38.3107C58.5934 34.8709 61.7122 32.1647 65.5208 32.1466Z" fill="#FF7E3E"/>
<path d="M30.748 38.7277C30.7896 35.2299 33.9589 32.3806 37.8271 32.3643C41.6592 32.3462 44.7364 35.114 44.7545 38.5647L50.0493 174.273L38.4483 174.326C38.4501 174.327 30.7426 39.2802 30.748 38.7277Z" fill="#FF7E3E"/>
<path opacity="0.2" d="M156.448 157.396V157.414L147.594 164.866L147.592 164.891H147.563H147.55H38.5042H38.3236H38.282L38.2712 164.694L29.6192 157.414V157.412H29.1172L29.6192 166.847L38.2712 174.129L38.282 174.326H38.3236L38.5042 174.325V174.326V174.325L147.55 174.326H147.563H147.592L147.594 174.299L156.448 166.847L156.95 157.396H156.448Z" fill="black"/>
<path d="M76.5738 94.9364C76.5738 98.6896 73.5399 101.733 69.7981 101.733C66.0563 101.733 63.0225 98.6896 63.0225 94.9364C63.0225 91.1832 66.0563 88.1401 69.7981 88.1401C73.5417 88.1401 76.5738 91.1832 76.5738 94.9364Z" fill="#3C2415"/>
<path d="M70.6578 90.964C71.3982 91.7067 70.8836 93.4275 69.5075 94.8077C68.1314 96.188 66.4158 96.7042 65.6754 95.9616C64.935 95.2189 65.4496 93.4981 66.8257 92.1179C68.2 90.7376 69.9156 90.2213 70.6578 90.964Z" fill="white"/>
<path d="M73.5419 95.8781C73.9338 96.2712 73.6611 97.1787 72.9351 97.9068C72.2092 98.635 71.3026 98.9085 70.9125 98.5155C70.5207 98.1224 70.7934 97.2149 71.5193 96.4867C72.2453 95.7586 73.1518 95.4869 73.5419 95.8781Z" fill="white"/>
<path d="M62.3456 82.4884C62.1398 82.4884 61.9303 82.434 61.7407 82.3199C61.1772 81.983 60.993 81.253 61.3289 80.6897C62.3077 79.0413 63.6982 77.911 65.3488 77.4238C66.9687 76.9437 68.7276 77.1122 70.436 77.9092C71.0301 78.1863 71.2865 78.8928 71.0102 79.4887C70.7339 80.0847 70.0296 80.3419 69.4355 80.0647C67.0319 78.9435 64.7059 79.6481 63.3659 81.9051C63.1438 82.2819 62.7501 82.4884 62.3456 82.4884Z" fill="#3C2415"/>
<path d="M110.122 94.9364C110.122 98.6896 113.156 101.733 116.898 101.733C120.64 101.733 123.673 98.6896 123.673 94.9364C123.673 91.1832 120.64 88.1401 116.898 88.1401C113.154 88.1401 110.122 91.1832 110.122 94.9364Z" fill="#3C2415"/>
<path d="M116.04 90.964C115.299 91.7067 115.814 93.4275 117.19 94.8077C118.566 96.188 120.282 96.7042 121.022 95.9616C121.763 95.2189 121.248 93.4981 119.872 92.1179C118.496 90.7376 116.78 90.2213 116.04 90.964Z" fill="white"/>
<path d="M113.154 95.8781C112.762 96.2712 113.035 97.1787 113.761 97.9068C114.486 98.635 115.393 98.9085 115.783 98.5155C116.175 98.1224 115.902 97.2149 115.176 96.4867C114.45 95.7586 113.544 95.4869 113.154 95.8781Z" fill="white"/>
<path d="M124.351 82.4885C123.946 82.4885 123.552 82.282 123.33 81.907C121.99 79.6501 119.664 78.9454 117.261 80.0667C116.667 80.3438 115.962 80.0848 115.686 79.4907C115.41 78.8947 115.668 78.1883 116.26 77.9112C117.969 77.1142 119.728 76.9457 121.347 77.4257C122.998 77.9148 124.389 79.0433 125.367 80.6916C125.703 81.2567 125.517 81.9849 124.956 82.3218C124.766 82.4341 124.557 82.4885 124.351 82.4885Z" fill="#3C2415"/>
<path d="M65.8922 109.933C67.7053 112.671 67.4453 116.044 65.3125 117.464C63.1798 118.884 59.9816 117.814 58.1685 115.075C56.3554 112.336 56.6154 108.963 58.7482 107.543C60.8809 106.123 64.0791 107.194 65.8922 109.933Z" fill="#FCC365"/>
<path d="M120.803 109.933C118.99 112.671 119.25 116.044 121.383 117.464C123.516 118.884 126.714 117.814 128.527 115.075C130.34 112.336 130.08 108.963 127.947 107.543C125.815 106.123 122.616 107.194 120.803 109.933Z" fill="#FCC365"/>
<path d="M95.8249 119.127C95.2687 119.223 94.6944 119.272 94.1255 119.272C91.4853 119.27 89.0041 118.238 87.1386 116.365C85.2731 114.492 84.2474 112.001 84.251 109.353C84.251 109.235 84.2745 109.119 84.3196 109.013C84.5002 108.585 85.2821 107.525 88.6212 106.948C90.1255 106.687 91.9801 106.558 94.1364 106.558C100.473 106.564 103.509 108.558 103.633 108.643C103.875 108.806 104.02 109.078 104.02 109.369C104.013 114.202 100.567 118.307 95.8249 119.127Z" fill="white"/>
<path d="M88.7695 107.808C90.0589 107.585 91.7962 107.431 94.1348 107.431C100.28 107.437 103.146 109.368 103.146 109.368C103.141 113.831 99.9154 117.532 95.677 118.265C95.1732 118.352 94.6531 118.397 94.1258 118.397C89.1488 118.394 85.1162 114.345 85.1216 109.351C85.1216 109.351 85.537 108.366 88.7695 107.808ZM88.4734 106.084C84.8435 106.712 83.8088 107.971 83.5162 108.667C83.4259 108.884 83.3771 109.114 83.379 109.35C83.3753 112.231 84.4914 114.941 86.523 116.981C88.5528 119.019 91.2526 120.144 94.1258 120.145C94.7452 120.145 95.3682 120.093 95.975 119.988C101.136 119.095 104.887 114.628 104.892 109.368C104.892 108.784 104.603 108.237 104.12 107.911C103.782 107.683 100.625 105.685 94.1384 105.68C91.9316 105.68 90.0264 105.816 88.4734 106.084Z" fill="#3C2415"/>
<path d="M85.4424 112.906C85.4424 112.906 87.7756 113.531 90.004 112.91L85.4424 112.906Z" fill="#3C2415"/>
<path d="M85.6366 112.055C85.6275 112.043 85.9273 112.197 86.2849 112.313C86.6515 112.465 87.1716 112.624 87.726 112.722C87.9987 112.769 88.2858 112.878 88.5422 112.863C88.8077 112.872 89.0569 112.883 89.2682 112.889C89.7106 112.901 90.0032 112.91 90.0032 112.91C90.0032 112.91 89.7287 113.01 89.317 113.157C89.1039 113.233 88.8547 113.32 88.5874 113.412C88.3165 113.532 88.0203 113.532 87.7188 113.595C87.121 113.715 86.498 113.769 86.0122 113.762C85.512 113.783 85.2483 113.76 85.2483 113.76L85.167 113.753C84.6758 113.706 84.3147 113.269 84.358 112.778C84.4032 112.285 84.8366 111.921 85.3296 111.968C85.4379 111.978 85.5445 112.01 85.6366 112.055Z" fill="#3C2415"/>
<path d="M102.837 112.921C102.837 112.921 100.502 113.54 98.2715 112.916L102.837 112.921Z" fill="#3C2415"/>
<path d="M103.03 113.774C103.03 113.774 102.766 113.798 102.264 113.776C101.779 113.783 101.155 113.727 100.556 113.606C100.256 113.541 99.96 113.539 99.6873 113.421C99.42 113.327 99.1708 113.238 98.9577 113.164C98.546 113.014 98.2715 112.916 98.2715 112.916C98.2715 112.916 98.5658 112.908 99.0065 112.896C99.2196 112.889 99.467 112.881 99.7342 112.872C99.9925 112.887 100.276 112.778 100.551 112.733C101.105 112.635 101.627 112.479 101.993 112.327C102.351 112.211 102.651 112.059 102.642 112.07C103.086 111.854 103.621 112.043 103.834 112.486C104.049 112.932 103.861 113.468 103.418 113.682C103.319 113.729 103.216 113.758 103.113 113.767L103.03 113.774Z" fill="#3C2415"/>
<path d="M93.0547 113.054C93.0547 113.054 93.1974 112.968 93.405 112.912C93.6145 112.845 93.889 112.834 94.1617 112.833C94.4326 112.869 94.7034 112.914 94.9021 113.006C95.1025 113.09 95.2326 113.191 95.2326 113.191C95.2326 113.191 95.0899 113.276 94.8822 113.332C94.6727 113.399 94.3983 113.409 94.1256 113.41C93.8547 113.374 93.5838 113.329 93.3852 113.236C93.1847 113.155 93.0547 113.054 93.0547 113.054Z" fill="#3C2415"/>
</svg>
